<svg width="996" height="133" viewBox="0 0 996 133" fill="none" xmlns="http://www.w3.org/2000/svg">
<g filter="url(#filter0_d_7306_7647)">
<rect x="26" y="18" width="966" height="102" rx="4" fill="white"/>
</g>
<path d="M79.16 80H74L66.23 69.14V80H61.7V58.58H66.23V68.96L73.91 58.58H78.74L70.94 68.87L79.16 80ZM85.8163 70.1C85.8163 70.44 85.7963 70.86 85.7563 71.36C85.7363 71.86 85.7063 72.37 85.6663 72.89C85.6463 73.41 85.6163 73.87 85.5763 74.27C85.5363 74.67 85.5063 74.95 85.4863 75.11L93.0463 63.62H98.4163V80H94.0963V73.46C94.0963 72.92 94.1163 72.33 94.1562 71.69C94.1963 71.03 94.2363 70.42 94.2763 69.86C94.3363 69.28 94.3763 68.84 94.3963 68.54L86.8662 80H81.4963V63.62H85.8163V70.1ZM116.648 66.98H111.278V80H106.808V66.98H101.438V63.62H116.648V66.98ZM134.257 71.78C134.257 73.14 134.067 74.35 133.687 75.41C133.327 76.47 132.797 77.37 132.097 78.11C131.417 78.83 130.587 79.38 129.607 79.76C128.627 80.12 127.517 80.3 126.277 80.3C125.137 80.3 124.077 80.12 123.097 79.76C122.137 79.38 121.307 78.83 120.607 78.11C119.907 77.37 119.357 76.47 118.957 75.41C118.577 74.35 118.387 73.14 118.387 71.78C118.387 69.96 118.707 68.43 119.347 67.19C119.987 65.93 120.907 64.97 122.107 64.31C123.307 63.65 124.727 63.32 126.367 63.32C127.907 63.32 129.267 63.65 130.447 64.31C131.627 64.97 132.557 65.93 133.237 67.19C133.917 68.43 134.257 69.96 134.257 71.78ZM122.947 71.78C122.947 72.86 123.057 73.77 123.277 74.51C123.517 75.23 123.887 75.78 124.387 76.16C124.887 76.52 125.537 76.7 126.337 76.7C127.137 76.7 127.777 76.52 128.257 76.16C128.757 75.78 129.117 75.23 129.337 74.51C129.577 73.77 129.697 72.86 129.697 71.78C129.697 70.7 129.577 69.8 129.337 69.08C129.117 68.36 128.757 67.82 128.257 67.46C127.757 67.1 127.107 66.92 126.307 66.92C125.127 66.92 124.267 67.33 123.727 68.15C123.207 68.95 122.947 70.16 122.947 71.78ZM136.961 70.19C136.961 67.77 137.261 65.72 137.861 64.04C138.461 62.34 139.411 60.99 140.711 59.99C142.011 58.97 143.711 58.28 145.811 57.92C146.871 57.74 147.941 57.59 149.021 57.47C150.121 57.33 151.251 57.19 152.411 57.05L152.921 60.95C152.421 61.01 151.871 61.08 151.271 61.16C150.671 61.22 150.061 61.29 149.441 61.37C148.841 61.43 148.261 61.5 147.701 61.58C147.141 61.66 146.631 61.73 146.171 61.79C145.431 61.91 144.781 62.08 144.221 62.3C143.661 62.5 143.191 62.79 142.811 63.17C142.431 63.55 142.131 64.07 141.911 64.73C141.711 65.37 141.581 66.2 141.521 67.22H141.731C141.971 66.84 142.301 66.46 142.721 66.08C143.161 65.7 143.701 65.38 144.341 65.12C144.981 64.86 145.711 64.73 146.531 64.73C147.831 64.73 148.961 65 149.921 65.54C150.881 66.08 151.621 66.88 152.141 67.94C152.661 69 152.921 70.32 152.921 71.9C152.921 73.76 152.581 75.31 151.901 76.55C151.221 77.79 150.281 78.73 149.081 79.37C147.881 79.99 146.491 80.3 144.911 80.3C143.711 80.3 142.621 80.08 141.641 79.64C140.661 79.2 139.821 78.55 139.121 77.69C138.421 76.83 137.881 75.77 137.501 74.51C137.141 73.25 136.961 71.81 136.961 70.19ZM145.181 76.67C145.821 76.67 146.371 76.53 146.831 76.25C147.311 75.97 147.681 75.51 147.941 74.87C148.221 74.23 148.361 73.37 148.361 72.29C148.361 70.99 148.141 69.96 147.701 69.2C147.281 68.42 146.541 68.03 145.481 68.03C144.841 68.03 144.241 68.19 143.681 68.51C143.141 68.81 142.681 69.16 142.301 69.56C141.921 69.94 141.661 70.27 141.521 70.55C141.521 71.33 141.581 72.09 141.701 72.83C141.821 73.55 142.021 74.2 142.301 74.78C142.581 75.36 142.951 75.82 143.411 76.16C143.891 76.5 144.481 76.67 145.181 76.67ZM171.283 80H166.813V66.98H162.703C162.503 69.38 162.253 71.43 161.953 73.13C161.673 74.81 161.313 76.18 160.873 77.24C160.453 78.3 159.913 79.08 159.253 79.58C158.593 80.06 157.783 80.3 156.823 80.3C156.303 80.3 155.833 80.26 155.413 80.18C154.993 80.1 154.613 79.98 154.273 79.82V76.25C154.493 76.33 154.723 76.4 154.963 76.46C155.203 76.52 155.453 76.55 155.713 76.55C155.993 76.55 156.253 76.44 156.493 76.22C156.753 76 156.993 75.61 157.213 75.05C157.453 74.49 157.673 73.72 157.873 72.74C158.073 71.76 158.253 70.53 158.413 69.05C158.593 67.55 158.753 65.74 158.893 63.62H171.283V80ZM182.669 63.29C184.869 63.29 186.549 63.77 187.709 64.73C188.889 65.67 189.479 67.12 189.479 69.08V80H186.359L185.489 77.78H185.369C184.909 78.36 184.429 78.84 183.929 79.22C183.449 79.6 182.889 79.87 182.249 80.03C181.629 80.21 180.859 80.3 179.939 80.3C178.979 80.3 178.109 80.12 177.329 79.76C176.569 79.38 175.969 78.81 175.529 78.05C175.089 77.27 174.869 76.29 174.869 75.11C174.869 73.37 175.479 72.09 176.699 71.27C177.919 70.43 179.749 69.97 182.189 69.89L185.039 69.8V69.08C185.039 68.22 184.809 67.59 184.349 67.19C183.909 66.79 183.289 66.59 182.489 66.59C181.689 66.59 180.909 66.71 180.149 66.95C179.389 67.17 178.629 67.45 177.869 67.79L176.399 64.76C177.279 64.3 178.249 63.94 179.309 63.68C180.389 63.42 181.509 63.29 182.669 63.29ZM183.299 72.47C181.859 72.51 180.859 72.77 180.299 73.25C179.739 73.73 179.459 74.36 179.459 75.14C179.459 75.82 179.659 76.31 180.059 76.61C180.459 76.89 180.979 77.03 181.619 77.03C182.579 77.03 183.389 76.75 184.049 76.19C184.709 75.61 185.039 74.8 185.039 73.76V72.41L183.299 72.47ZM203.175 63.32C205.015 63.32 206.505 64.04 207.645 65.48C208.785 66.9 209.355 69 209.355 71.78C209.355 73.64 209.085 75.21 208.545 76.49C208.005 77.75 207.265 78.7 206.325 79.34C205.385 79.98 204.295 80.3 203.055 80.3C202.275 80.3 201.595 80.2 201.015 80C200.455 79.8 199.975 79.54 199.575 79.22C199.175 78.9 198.825 78.56 198.525 78.2H198.285C198.365 78.58 198.425 78.98 198.465 79.4C198.505 79.8 198.525 80.2 198.525 80.6V87.2H194.055V63.62H197.685L198.315 65.75H198.525C198.825 65.31 199.185 64.91 199.605 64.55C200.025 64.17 200.525 63.87 201.105 63.65C201.705 63.43 202.395 63.32 203.175 63.32ZM201.735 66.89C200.955 66.89 200.335 67.05 199.875 67.37C199.415 67.69 199.075 68.18 198.855 68.84C198.655 69.48 198.545 70.29 198.525 71.27V71.75C198.525 72.81 198.625 73.71 198.825 74.45C199.025 75.17 199.365 75.72 199.845 76.1C200.325 76.48 200.975 76.67 201.795 76.67C202.475 76.67 203.035 76.48 203.475 76.1C203.915 75.72 204.245 75.16 204.465 74.42C204.685 73.68 204.795 72.78 204.795 71.72C204.795 70.12 204.545 68.92 204.045 68.12C203.565 67.3 202.795 66.89 201.735 66.89ZM217.359 70.1C217.359 70.44 217.339 70.86 217.299 71.36C217.279 71.86 217.249 72.37 217.209 72.89C217.189 73.41 217.159 73.87 217.119 74.27C217.079 74.67 217.049 74.95 217.029 75.11L224.589 63.62H229.959V80H225.639V73.46C225.639 72.92 225.659 72.33 225.699 71.69C225.739 71.03 225.779 70.42 225.819 69.86C225.879 69.28 225.919 68.84 225.939 68.54L218.409 80H213.039V63.62H217.359V70.1ZM255.271 63.62V80H251.101V71.96C251.101 71.16 251.111 70.38 251.131 69.62C251.171 68.86 251.221 68.16 251.281 67.52H251.191L246.661 80H243.301L238.711 67.49H238.591C238.671 68.15 238.721 68.86 238.741 69.62C238.781 70.36 238.801 71.18 238.801 72.08V80H234.631V63.62H240.961L245.041 74.72L249.181 63.62H255.271Z" fill="#11142D"/>
<path d="M346.72 79L345.344 75.464H340.816L339.456 79H338L342.464 67.528H343.76L348.208 79H346.72ZM343.632 70.728C343.6 70.6427 343.547 70.488 343.472 70.264C343.397 70.04 343.323 69.8107 343.248 69.576C343.184 69.3307 343.131 69.144 343.088 69.016C343.035 69.2293 342.976 69.448 342.912 69.672C342.859 69.8853 342.8 70.0827 342.736 70.264C342.683 70.4453 342.635 70.6 342.592 70.728L341.296 74.184H344.912L343.632 70.728ZM348.235 70.424H349.739L351.595 75.304C351.701 75.592 351.797 75.8693 351.883 76.136C351.979 76.4027 352.064 76.664 352.139 76.92C352.213 77.1653 352.272 77.4053 352.315 77.64H352.379C352.443 77.3733 352.544 77.0267 352.683 76.6C352.821 76.1627 352.965 75.7253 353.115 75.288L354.859 70.424H356.379L352.683 80.184C352.48 80.7173 352.24 81.1813 351.963 81.576C351.696 81.9813 351.365 82.2907 350.971 82.504C350.587 82.728 350.117 82.84 349.563 82.84C349.307 82.84 349.083 82.824 348.891 82.792C348.699 82.7707 348.533 82.744 348.395 82.712V81.592C348.512 81.6133 348.651 81.6347 348.811 81.656C348.981 81.6773 349.157 81.688 349.339 81.688C349.669 81.688 349.952 81.624 350.187 81.496C350.432 81.3787 350.64 81.2027 350.811 80.968C350.981 80.744 351.125 80.4773 351.243 80.168L351.691 79.032L348.235 70.424ZM363.791 70.424V77.816H365.039V81.976H363.679V79H357.711V81.976H356.367V77.816H357.055C357.545 77.1333 357.951 76.392 358.271 75.592C358.601 74.7813 358.847 73.9387 359.007 73.064C359.177 72.1787 359.268 71.2987 359.279 70.424H363.791ZM360.527 71.528C360.484 72.2533 360.372 73.0053 360.191 73.784C360.009 74.552 359.775 75.288 359.487 75.992C359.209 76.696 358.884 77.304 358.511 77.816H362.431V71.528H360.527ZM368.047 75.656C368.047 75.752 368.042 75.8907 368.031 76.072C368.031 76.2427 368.026 76.4293 368.015 76.632C368.005 76.824 367.994 77.0107 367.983 77.192C367.973 77.3627 367.962 77.5013 367.951 77.608L372.543 70.424H374.271V79H372.959V73.944C372.959 73.7733 372.959 73.5493 372.959 73.272C372.97 72.9947 372.981 72.7227 372.991 72.456C373.002 72.1787 373.013 71.9707 373.023 71.832L368.463 79H366.719V70.424H368.047V75.656ZM384.457 74.696C384.457 75.4107 384.361 76.0453 384.169 76.6C383.987 77.144 383.721 77.608 383.369 77.992C383.027 78.376 382.606 78.6693 382.105 78.872C381.614 79.064 381.065 79.16 380.457 79.16C379.891 79.16 379.369 79.064 378.889 78.872C378.409 78.6693 377.993 78.376 377.641 77.992C377.289 77.608 377.011 77.144 376.809 76.6C376.617 76.0453 376.521 75.4107 376.521 74.696C376.521 73.7467 376.681 72.9467 377.001 72.296C377.321 71.6347 377.779 71.1333 378.377 70.792C378.974 70.44 379.683 70.264 380.505 70.264C381.283 70.264 381.966 70.44 382.553 70.792C383.15 71.1333 383.614 71.6347 383.945 72.296C384.286 72.9467 384.457 73.7467 384.457 74.696ZM377.977 74.696C377.977 75.368 378.062 75.9547 378.233 76.456C378.414 76.9467 378.691 77.3253 379.065 77.592C379.438 77.8587 379.913 77.992 380.489 77.992C381.065 77.992 381.539 77.8587 381.913 77.592C382.286 77.3253 382.558 76.9467 382.729 76.456C382.91 75.9547 383.001 75.368 383.001 74.696C383.001 74.0133 382.91 73.432 382.729 72.952C382.547 72.472 382.27 72.104 381.897 71.848C381.534 71.5813 381.059 71.448 380.473 71.448C379.598 71.448 378.963 71.736 378.569 72.312C378.174 72.888 377.977 73.6827 377.977 74.696ZM391.76 70.424H393.296L389.632 74.552L393.6 79H391.968L388.096 74.648V79H386.688V70.424H388.096V74.584L391.76 70.424ZM396.485 75.656C396.485 75.752 396.48 75.8907 396.469 76.072C396.469 76.2427 396.464 76.4293 396.453 76.632C396.442 76.824 396.432 77.0107 396.421 77.192C396.41 77.3627 396.4 77.5013 396.389 77.608L400.981 70.424H402.709V79H401.397V73.944C401.397 73.7733 401.397 73.5493 401.397 73.272C401.408 72.9947 401.418 72.7227 401.429 72.456C401.44 72.1787 401.45 71.9707 401.461 71.832L396.901 79H395.157V70.424H396.485V75.656ZM411.358 71.608H408.558V79H407.166V71.608H404.398V70.424H411.358V71.608ZM420.347 74.696C420.347 75.4107 420.251 76.0453 420.059 76.6C419.878 77.144 419.611 77.608 419.259 77.992C418.918 78.376 418.497 78.6693 417.995 78.872C417.505 79.064 416.955 79.16 416.347 79.16C415.782 79.16 415.259 79.064 414.779 78.872C414.299 78.6693 413.883 78.376 413.531 77.992C413.179 77.608 412.902 77.144 412.699 76.6C412.507 76.0453 412.411 75.4107 412.411 74.696C412.411 73.7467 412.571 72.9467 412.891 72.296C413.211 71.6347 413.67 71.1333 414.267 70.792C414.865 70.44 415.574 70.264 416.395 70.264C417.174 70.264 417.857 70.44 418.443 70.792C419.041 71.1333 419.505 71.6347 419.835 72.296C420.177 72.9467 420.347 73.7467 420.347 74.696ZM413.867 74.696C413.867 75.368 413.953 75.9547 414.123 76.456C414.305 76.9467 414.582 77.3253 414.955 77.592C415.329 77.8587 415.803 77.992 416.379 77.992C416.955 77.992 417.43 77.8587 417.803 77.592C418.177 77.3253 418.449 76.9467 418.619 76.456C418.801 75.9547 418.891 75.368 418.891 74.696C418.891 74.0133 418.801 73.432 418.619 72.952C418.438 72.472 418.161 72.104 417.787 71.848C417.425 71.5813 416.95 71.448 416.363 71.448C415.489 71.448 414.854 71.736 414.459 72.312C414.065 72.888 413.867 73.6827 413.867 74.696ZM422.131 73.848C422.131 72.6 422.253 71.5387 422.499 70.664C422.755 69.7787 423.144 69.0747 423.667 68.552C424.2 68.0187 424.883 67.6613 425.715 67.48C426.408 67.3307 427.085 67.1973 427.747 67.08C428.408 66.9627 429.027 66.856 429.603 66.76L429.843 67.992C429.565 68.0347 429.256 68.088 428.915 68.152C428.573 68.2053 428.227 68.264 427.875 68.328C427.523 68.3813 427.181 68.44 426.851 68.504C426.531 68.5573 426.248 68.6107 426.003 68.664C425.651 68.7387 425.336 68.8667 425.059 69.048C424.781 69.2187 424.541 69.4533 424.339 69.752C424.147 70.0507 423.992 70.4187 423.875 70.856C423.757 71.2933 423.688 71.8107 423.667 72.408H423.763C423.912 72.2053 424.115 71.9973 424.371 71.784C424.637 71.5707 424.952 71.3893 425.315 71.24C425.688 71.0907 426.109 71.016 426.579 71.016C427.325 71.016 427.944 71.1813 428.435 71.512C428.936 71.832 429.309 72.28 429.555 72.856C429.811 73.432 429.939 74.104 429.939 74.872C429.939 75.8213 429.773 76.616 429.443 77.256C429.112 77.896 428.653 78.376 428.067 78.696C427.48 79.0053 426.797 79.16 426.019 79.16C425.432 79.16 424.899 79.048 424.419 78.824C423.939 78.5893 423.528 78.248 423.187 77.8C422.845 77.352 422.584 76.7973 422.403 76.136C422.221 75.4747 422.131 74.712 422.131 73.848ZM426.131 77.992C426.6 77.992 427.005 77.896 427.347 77.704C427.699 77.512 427.971 77.1973 428.163 76.76C428.355 76.3227 428.451 75.7413 428.451 75.016C428.451 74.1413 428.285 73.4533 427.955 72.952C427.635 72.44 427.101 72.184 426.355 72.184C425.885 72.184 425.459 72.2907 425.075 72.504C424.691 72.7067 424.371 72.9413 424.115 73.208C423.859 73.4747 423.677 73.6987 423.571 73.88C423.571 74.4027 423.608 74.9093 423.683 75.4C423.757 75.8907 423.885 76.3333 424.067 76.728C424.259 77.112 424.52 77.4213 424.851 77.656C425.192 77.88 425.619 77.992 426.131 77.992Z" fill="#242424"/>
<path d="M470.712 68.68C470.179 68.68 469.693 68.744 469.256 68.872C468.819 68.9893 468.424 69.128 468.072 69.288L467.48 68.088C467.917 67.8747 468.419 67.7093 468.984 67.592C469.549 67.4747 470.131 67.416 470.728 67.416C471.645 67.416 472.44 67.56 473.112 67.848C473.795 68.1253 474.36 68.52 474.808 69.032C475.256 69.544 475.587 70.1467 475.8 70.84C476.024 71.5227 476.136 72.2747 476.136 73.096C476.136 74.344 475.933 75.4213 475.528 76.328C475.123 77.2347 474.509 77.9333 473.688 78.424C472.877 78.9147 471.853 79.16 470.616 79.16C469.955 79.16 469.395 79.1227 468.936 79.048C468.477 78.9733 468.024 78.856 467.576 78.696V77.448C468.024 77.5653 468.477 77.672 468.936 77.768C469.395 77.8533 469.88 77.896 470.392 77.896C471.085 77.896 471.688 77.8053 472.2 77.624C472.723 77.432 473.16 77.16 473.512 76.808C473.864 76.4453 474.131 76.0027 474.312 75.48C474.493 74.9467 474.595 74.3387 474.616 73.656H469.064V72.392H474.6C474.547 71.8053 474.419 71.2827 474.216 70.824C474.013 70.3653 473.741 69.976 473.4 69.656C473.069 69.336 472.675 69.096 472.216 68.936C471.768 68.7653 471.267 68.68 470.712 68.68ZM484.857 79H483.433V71.592H480.905C480.798 72.9467 480.665 74.104 480.505 75.064C480.345 76.0133 480.142 76.7867 479.897 77.384C479.651 77.9813 479.358 78.4187 479.017 78.696C478.675 78.9733 478.275 79.112 477.817 79.112C477.678 79.112 477.539 79.1013 477.401 79.08C477.273 79.0693 477.166 79.0427 477.081 79V77.944C477.145 77.9653 477.214 77.9813 477.289 77.992C477.363 78.0027 477.438 78.008 477.513 78.008C477.747 78.008 477.961 77.912 478.153 77.72C478.345 77.528 478.515 77.2347 478.665 76.84C478.825 76.4453 478.969 75.9493 479.097 75.352C479.225 74.744 479.337 74.0293 479.433 73.208C479.529 72.3867 479.614 71.4587 479.689 70.424H484.857V79ZM490.891 70.264C491.627 70.264 492.256 70.424 492.779 70.744C493.312 71.064 493.717 71.5173 493.995 72.104C494.283 72.68 494.427 73.3573 494.427 74.136V74.984H488.555C488.576 75.9547 488.821 76.696 489.291 77.208C489.771 77.7093 490.437 77.96 491.291 77.96C491.835 77.96 492.315 77.912 492.731 77.816C493.157 77.7093 493.595 77.56 494.043 77.368V78.6C493.605 78.792 493.173 78.9307 492.747 79.016C492.32 79.112 491.813 79.16 491.227 79.16C490.416 79.16 489.696 78.9947 489.067 78.664C488.448 78.3333 487.963 77.8427 487.611 77.192C487.269 76.5307 487.099 75.7253 487.099 74.776C487.099 73.8373 487.253 73.032 487.563 72.36C487.883 71.688 488.325 71.1707 488.891 70.808C489.467 70.4453 490.133 70.264 490.891 70.264ZM490.875 71.416C490.203 71.416 489.669 71.6347 489.275 72.072C488.891 72.4987 488.661 73.096 488.587 73.864H492.955C492.955 73.3733 492.88 72.9467 492.731 72.584C492.581 72.2213 492.352 71.9387 492.043 71.736C491.744 71.5227 491.355 71.416 490.875 71.416ZM501.682 70.424H503.218L499.554 74.552L503.522 79H501.89L498.018 74.648V79H496.61V70.424H498.018V74.584L501.682 70.424ZM510.999 71.608H508.199V79H506.807V71.608H504.039V70.424H510.999V71.608ZM516.768 70.264C517.824 70.264 518.672 70.632 519.312 71.368C519.963 72.104 520.288 73.2133 520.288 74.696C520.288 75.6667 520.139 76.488 519.84 77.16C519.552 77.8213 519.141 78.3227 518.608 78.664C518.085 78.9947 517.467 79.16 516.752 79.16C516.315 79.16 515.925 79.1013 515.584 78.984C515.243 78.8667 514.949 78.7173 514.704 78.536C514.469 78.344 514.267 78.136 514.096 77.912H514C514.021 78.0933 514.043 78.3227 514.064 78.6C514.085 78.8773 514.096 79.1173 514.096 79.32V82.84H512.688V70.424H513.84L514.032 71.592H514.096C514.267 71.3467 514.469 71.1227 514.704 70.92C514.949 70.7173 515.237 70.5573 515.568 70.44C515.909 70.3227 516.309 70.264 516.768 70.264ZM516.512 71.448C515.936 71.448 515.472 71.56 515.12 71.784C514.768 71.9973 514.512 72.3227 514.352 72.76C514.192 73.1973 514.107 73.752 514.096 74.424V74.696C514.096 75.4 514.171 75.9973 514.32 76.488C514.469 76.9787 514.72 77.352 515.072 77.608C515.435 77.864 515.925 77.992 516.544 77.992C517.067 77.992 517.493 77.848 517.824 77.56C518.165 77.272 518.416 76.8827 518.576 76.392C518.747 75.8907 518.832 75.32 518.832 74.68C518.832 73.6987 518.64 72.9147 518.256 72.328C517.883 71.7413 517.301 71.448 516.512 71.448ZM529.988 74.696C529.988 75.4107 529.892 76.0453 529.7 76.6C529.519 77.144 529.252 77.608 528.9 77.992C528.559 78.376 528.137 78.6693 527.636 78.872C527.145 79.064 526.596 79.16 525.988 79.16C525.423 79.16 524.9 79.064 524.42 78.872C523.94 78.6693 523.524 78.376 523.172 77.992C522.82 77.608 522.543 77.144 522.34 76.6C522.148 76.0453 522.052 75.4107 522.052 74.696C522.052 73.7467 522.212 72.9467 522.532 72.296C522.852 71.6347 523.311 71.1333 523.908 70.792C524.505 70.44 525.215 70.264 526.036 70.264C526.815 70.264 527.497 70.44 528.084 70.792C528.681 71.1333 529.145 71.6347 529.476 72.296C529.817 72.9467 529.988 73.7467 529.988 74.696ZM523.508 74.696C523.508 75.368 523.593 75.9547 523.764 76.456C523.945 76.9467 524.223 77.3253 524.596 77.592C524.969 77.8587 525.444 77.992 526.02 77.992C526.596 77.992 527.071 77.8587 527.444 77.592C527.817 77.3253 528.089 76.9467 528.26 76.456C528.441 75.9547 528.532 75.368 528.532 74.696C528.532 74.0133 528.441 73.432 528.26 72.952C528.079 72.472 527.801 72.104 527.428 71.848C527.065 71.5813 526.591 71.448 526.004 71.448C525.129 71.448 524.495 71.736 524.1 72.312C523.705 72.888 523.508 73.6827 523.508 74.696ZM533.627 70.424V73.992H538.283V70.424H539.691V79H538.283V75.176H533.627V79H532.219V70.424H533.627ZM550.995 70.424H552.531L548.867 74.552L552.835 79H551.203L547.331 74.648V79H545.923V70.424H547.331V74.584L550.995 70.424ZM555.719 75.656C555.719 75.752 555.714 75.8907 555.703 76.072C555.703 76.2427 555.698 76.4293 555.687 76.632C555.677 76.824 555.666 77.0107 555.655 77.192C555.645 77.3627 555.634 77.5013 555.623 77.608L560.215 70.424H561.943V79H560.631V73.944C560.631 73.7733 560.631 73.5493 560.631 73.272C560.642 72.9947 560.653 72.7227 560.663 72.456C560.674 72.1787 560.685 71.9707 560.695 71.832L556.135 79H554.391V70.424H555.719V75.656ZM570.593 71.608H567.793V79H566.401V71.608H563.633V70.424H570.593V71.608ZM579.582 74.696C579.582 75.4107 579.486 76.0453 579.294 76.6C579.112 77.144 578.846 77.608 578.494 77.992C578.152 78.376 577.731 78.6693 577.23 78.872C576.739 79.064 576.19 79.16 575.582 79.16C575.016 79.16 574.494 79.064 574.014 78.872C573.534 78.6693 573.118 78.376 572.766 77.992C572.414 77.608 572.136 77.144 571.934 76.6C571.742 76.0453 571.646 75.4107 571.646 74.696C571.646 73.7467 571.806 72.9467 572.126 72.296C572.446 71.6347 572.904 71.1333 573.502 70.792C574.099 70.44 574.808 70.264 575.63 70.264C576.408 70.264 577.091 70.44 577.678 70.792C578.275 71.1333 578.739 71.6347 579.07 72.296C579.411 72.9467 579.582 73.7467 579.582 74.696ZM573.102 74.696C573.102 75.368 573.187 75.9547 573.358 76.456C573.539 76.9467 573.816 77.3253 574.19 77.592C574.563 77.8587 575.038 77.992 575.614 77.992C576.19 77.992 576.664 77.8587 577.038 77.592C577.411 77.3253 577.683 76.9467 577.854 76.456C578.035 75.9547 578.126 75.368 578.126 74.696C578.126 74.0133 578.035 73.432 577.854 72.952C577.672 72.472 577.395 72.104 577.022 71.848C576.659 71.5813 576.184 71.448 575.598 71.448C574.723 71.448 574.088 71.736 573.694 72.312C573.299 72.888 573.102 73.6827 573.102 74.696ZM581.365 73.848C581.365 72.6 581.488 71.5387 581.733 70.664C581.989 69.7787 582.378 69.0747 582.901 68.552C583.434 68.0187 584.117 67.6613 584.949 67.48C585.642 67.3307 586.32 67.1973 586.981 67.08C587.642 66.9627 588.261 66.856 588.837 66.76L589.077 67.992C588.8 68.0347 588.49 68.088 588.149 68.152C587.808 68.2053 587.461 68.264 587.109 68.328C586.757 68.3813 586.416 68.44 586.085 68.504C585.765 68.5573 585.482 68.6107 585.237 68.664C584.885 68.7387 584.57 68.8667 584.293 69.048C584.016 69.2187 583.776 69.4533 583.573 69.752C583.381 70.0507 583.226 70.4187 583.109 70.856C582.992 71.2933 582.922 71.8107 582.901 72.408H582.997C583.146 72.2053 583.349 71.9973 583.605 71.784C583.872 71.5707 584.186 71.3893 584.549 71.24C584.922 71.0907 585.344 71.016 585.813 71.016C586.56 71.016 587.178 71.1813 587.669 71.512C588.17 71.832 588.544 72.28 588.789 72.856C589.045 73.432 589.173 74.104 589.173 74.872C589.173 75.8213 589.008 76.616 588.677 77.256C588.346 77.896 587.888 78.376 587.301 78.696C586.714 79.0053 586.032 79.16 585.253 79.16C584.666 79.16 584.133 79.048 583.653 78.824C583.173 78.5893 582.762 78.248 582.421 77.8C582.08 77.352 581.818 76.7973 581.637 76.136C581.456 75.4747 581.365 74.712 581.365 73.848ZM585.365 77.992C585.834 77.992 586.24 77.896 586.581 77.704C586.933 77.512 587.205 77.1973 587.397 76.76C587.589 76.3227 587.685 75.7413 587.685 75.016C587.685 74.1413 587.52 73.4533 587.189 72.952C586.869 72.44 586.336 72.184 585.589 72.184C585.12 72.184 584.693 72.2907 584.309 72.504C583.925 72.7067 583.605 72.9413 583.349 73.208C583.093 73.4747 582.912 73.6987 582.805 73.88C582.805 74.4027 582.842 74.9093 582.917 75.4C582.992 75.8907 583.12 76.3333 583.301 76.728C583.493 77.112 583.754 77.4213 584.085 77.656C584.426 77.88 584.853 77.992 585.365 77.992Z" fill="#242424"/>
<path d="M628.44 79V67.576H635.656V69.576H630.856V71.96H631.816C632.893 71.96 633.773 72.1093 634.456 72.408C635.149 72.7067 635.661 73.1173 635.992 73.64C636.323 74.1627 636.488 74.76 636.488 75.432C636.488 76.1787 636.323 76.8187 635.992 77.352C635.661 77.8853 635.149 78.296 634.456 78.584C633.763 78.8613 632.867 79 631.768 79H628.44ZM631.672 77.016C632.408 77.016 632.984 76.8987 633.4 76.664C633.827 76.4293 634.04 76.0187 634.04 75.432C634.04 75.0267 633.933 74.7173 633.72 74.504C633.517 74.2907 633.224 74.1467 632.84 74.072C632.467 73.9867 632.013 73.944 631.48 73.944H630.856V77.016H631.672ZM646.387 74.616C646.387 75.3413 646.286 75.9867 646.083 76.552C645.891 77.1173 645.608 77.5973 645.235 77.992C644.872 78.376 644.43 78.6693 643.907 78.872C643.384 79.064 642.792 79.16 642.131 79.16C641.523 79.16 640.958 79.064 640.435 78.872C639.923 78.6693 639.48 78.376 639.107 77.992C638.734 77.5973 638.44 77.1173 638.227 76.552C638.024 75.9867 637.923 75.3413 637.923 74.616C637.923 73.6453 638.094 72.8293 638.435 72.168C638.776 71.496 639.267 70.984 639.907 70.632C640.547 70.28 641.304 70.104 642.179 70.104C643 70.104 643.726 70.28 644.355 70.632C644.984 70.984 645.48 71.496 645.843 72.168C646.206 72.8293 646.387 73.6453 646.387 74.616ZM640.355 74.616C640.355 75.192 640.414 75.6773 640.531 76.072C640.659 76.456 640.856 76.7493 641.123 76.952C641.39 77.144 641.736 77.24 642.163 77.24C642.59 77.24 642.931 77.144 643.187 76.952C643.454 76.7493 643.646 76.456 643.763 76.072C643.891 75.6773 643.955 75.192 643.955 74.616C643.955 74.04 643.891 73.56 643.763 73.176C643.646 72.792 643.454 72.504 643.187 72.312C642.92 72.12 642.574 72.024 642.147 72.024C641.518 72.024 641.059 72.2427 640.771 72.68C640.494 73.1067 640.355 73.752 640.355 74.616ZM651.909 79.16C651.045 79.16 650.309 79.0053 649.701 78.696C649.093 78.376 648.629 77.8853 648.309 77.224C647.989 76.5627 647.829 75.7147 647.829 74.68C647.829 73.6133 648.011 72.744 648.373 72.072C648.736 71.4 649.237 70.904 649.877 70.584C650.528 70.264 651.275 70.104 652.117 70.104C652.715 70.104 653.232 70.1627 653.669 70.28C654.117 70.3973 654.507 70.536 654.837 70.696L654.133 72.536C653.76 72.3867 653.408 72.264 653.077 72.168C652.757 72.072 652.437 72.024 652.117 72.024C651.701 72.024 651.355 72.1253 651.077 72.328C650.8 72.52 650.592 72.8133 650.453 73.208C650.325 73.592 650.261 74.0773 650.261 74.664C650.261 75.24 650.331 75.72 650.469 76.104C650.619 76.4773 650.832 76.76 651.109 76.952C651.387 77.1333 651.723 77.224 652.117 77.224C652.619 77.224 653.061 77.16 653.445 77.032C653.829 76.8933 654.203 76.7067 654.565 76.472V78.504C654.203 78.7387 653.819 78.904 653.413 79C653.019 79.1067 652.517 79.16 651.909 79.16ZM667.584 70.264V79H665.36V74.712C665.36 74.2853 665.365 73.8693 665.376 73.464C665.397 73.0587 665.424 72.6853 665.456 72.344H665.408L662.992 79H661.2L658.752 72.328H658.688C658.731 72.68 658.757 73.0587 658.768 73.464C658.789 73.8587 658.8 74.296 658.8 74.776V79H656.576V70.264H659.952L662.128 76.184L664.336 70.264H667.584ZM673.66 70.088C674.833 70.088 675.729 70.344 676.348 70.856C676.977 71.3573 677.292 72.1307 677.292 73.176V79H675.628L675.164 77.816H675.1C674.855 78.1253 674.599 78.3813 674.332 78.584C674.076 78.7867 673.777 78.9307 673.436 79.016C673.105 79.112 672.695 79.16 672.204 79.16C671.692 79.16 671.228 79.064 670.812 78.872C670.407 78.6693 670.087 78.3653 669.852 77.96C669.617 77.544 669.5 77.0213 669.5 76.392C669.5 75.464 669.825 74.7813 670.476 74.344C671.127 73.896 672.103 73.6507 673.404 73.608L674.924 73.56V73.176C674.924 72.7173 674.801 72.3813 674.556 72.168C674.321 71.9547 673.991 71.848 673.564 71.848C673.137 71.848 672.721 71.912 672.316 72.04C671.911 72.1573 671.505 72.3067 671.1 72.488L670.316 70.872C670.785 70.6267 671.303 70.4347 671.868 70.296C672.444 70.1573 673.041 70.088 673.66 70.088ZM673.996 74.984C673.228 75.0053 672.695 75.144 672.396 75.4C672.097 75.656 671.948 75.992 671.948 76.408C671.948 76.7707 672.055 77.032 672.268 77.192C672.481 77.3413 672.759 77.416 673.1 77.416C673.612 77.416 674.044 77.2667 674.396 76.968C674.748 76.6587 674.924 76.2267 674.924 75.672V74.952L673.996 74.984ZM688.945 70.264H691.569L688.113 74.456L691.873 79H689.169L685.601 74.568V79H683.217V70.264H685.601V74.504L688.945 70.264ZM695.427 73.72C695.427 73.9013 695.416 74.1253 695.395 74.392C695.384 74.6587 695.368 74.9307 695.347 75.208C695.336 75.4853 695.32 75.7307 695.299 75.944C695.278 76.1573 695.262 76.3067 695.251 76.392L699.283 70.264H702.147V79H699.843V75.512C699.843 75.224 699.854 74.9093 699.875 74.568C699.896 74.216 699.918 73.8907 699.939 73.592C699.971 73.2827 699.992 73.048 700.003 72.888L695.987 79H693.123V70.264H695.427V73.72ZM711.871 72.056H709.007V79H706.623V72.056H703.759V70.264H711.871V72.056ZM721.262 74.616C721.262 75.3413 721.161 75.9867 720.958 76.552C720.766 77.1173 720.483 77.5973 720.11 77.992C719.747 78.376 719.305 78.6693 718.782 78.872C718.259 79.064 717.667 79.16 717.006 79.16C716.398 79.16 715.833 79.064 715.31 78.872C714.798 78.6693 714.355 78.376 713.982 77.992C713.609 77.5973 713.315 77.1173 713.102 76.552C712.899 75.9867 712.798 75.3413 712.798 74.616C712.798 73.6453 712.969 72.8293 713.31 72.168C713.651 71.496 714.142 70.984 714.782 70.632C715.422 70.28 716.179 70.104 717.054 70.104C717.875 70.104 718.601 70.28 719.23 70.632C719.859 70.984 720.355 71.496 720.718 72.168C721.081 72.8293 721.262 73.6453 721.262 74.616ZM715.23 74.616C715.23 75.192 715.289 75.6773 715.406 76.072C715.534 76.456 715.731 76.7493 715.998 76.952C716.265 77.144 716.611 77.24 717.038 77.24C717.465 77.24 717.806 77.144 718.062 76.952C718.329 76.7493 718.521 76.456 718.638 76.072C718.766 75.6773 718.83 75.192 718.83 74.616C718.83 74.04 718.766 73.56 718.638 73.176C718.521 72.792 718.329 72.504 718.062 72.312C717.795 72.12 717.449 72.024 717.022 72.024C716.393 72.024 715.934 72.2427 715.646 72.68C715.369 73.1067 715.23 73.752 715.23 74.616ZM722.704 73.768C722.704 72.4773 722.864 71.384 723.184 70.488C723.504 69.5813 724.011 68.8613 724.704 68.328C725.398 67.784 726.304 67.416 727.424 67.224C727.99 67.128 728.56 67.048 729.136 66.984C729.723 66.9093 730.326 66.8347 730.944 66.76L731.216 68.84C730.95 68.872 730.656 68.9093 730.336 68.952C730.016 68.984 729.691 69.0213 729.36 69.064C729.04 69.096 728.731 69.1333 728.432 69.176C728.134 69.2187 727.862 69.256 727.616 69.288C727.222 69.352 726.875 69.4427 726.576 69.56C726.278 69.6667 726.027 69.8213 725.824 70.024C725.622 70.2267 725.462 70.504 725.344 70.856C725.238 71.1973 725.168 71.64 725.136 72.184H725.248C725.376 71.9813 725.552 71.7787 725.776 71.576C726.011 71.3733 726.299 71.2027 726.64 71.064C726.982 70.9253 727.371 70.856 727.808 70.856C728.502 70.856 729.104 71 729.616 71.288C730.128 71.576 730.523 72.0027 730.8 72.568C731.078 73.1333 731.216 73.8373 731.216 74.68C731.216 75.672 731.035 76.4987 730.672 77.16C730.31 77.8213 729.808 78.3227 729.168 78.664C728.528 78.9947 727.787 79.16 726.944 79.16C726.304 79.16 725.723 79.0427 725.2 78.808C724.678 78.5733 724.23 78.2267 723.856 77.768C723.483 77.3093 723.195 76.744 722.992 76.072C722.8 75.4 722.704 74.632 722.704 73.768ZM727.088 77.224C727.43 77.224 727.723 77.1493 727.968 77C728.224 76.8507 728.422 76.6053 728.56 76.264C728.71 75.9227 728.784 75.464 728.784 74.888C728.784 74.1947 728.667 73.6453 728.432 73.24C728.208 72.824 727.814 72.616 727.248 72.616C726.907 72.616 726.587 72.7013 726.288 72.872C726 73.032 725.755 73.2187 725.552 73.432C725.35 73.6347 725.211 73.8107 725.136 73.96C725.136 74.376 725.168 74.7813 725.232 75.176C725.296 75.56 725.403 75.9067 725.552 76.216C725.702 76.5253 725.899 76.7707 726.144 76.952C726.4 77.1333 726.715 77.224 727.088 77.224Z" fill="#3F51B5"/>
<rect x="627" y="91" width="105" height="2" rx="1" fill="#3F51B5"/>
<defs>
<filter id="filter0_d_7306_7647" x="22" y="18" width="974" height="110" filterUnits="userSpaceOnUse" color-interpolation-filters="sRGB">
<feFlood flood-opacity="0" result="BackgroundImageFix"/>
<feColorMatrix in="SourceAlpha" type="matrix" values="0 0 0 0 0 0 0 0 0 0 0 0 0 0 0 0 0 0 127 0" result="hardAlpha"/>
<feOffset dy="4"/>
<feGaussianBlur stdDeviation="2"/>
<feComposite in2="hardAlpha" operator="out"/>
<feColorMatrix type="matrix" values="0 0 0 0 0 0 0 0 0 0 0 0 0 0 0 0 0 0 0.06 0"/>
<feBlend mode="normal" in2="BackgroundImageFix" result="effect1_dropShadow_7306_7647"/>
<feBlend mode="normal" in="SourceGraphic" in2="effect1_dropShadow_7306_7647" result="shape"/>
</filter>
</defs>
</svg>
