<svg width="1079" height="48" viewBox="0 0 1079 48" fill="none" xmlns="http://www.w3.org/2000/svg">
<rect x="928" width="151" height="48" rx="14" fill="#3F51B5"/>
<path fill-rule="evenodd" clip-rule="evenodd" d="M964 25.2002C960.134 25.2002 957 28.1252 957 31.7335V33.6002C957 34.1156 956.552 34.5335 956 34.5335C955.448 34.5335 955 34.1156 955 33.6002V31.7335C955 27.0943 959.029 23.3335 964 23.3335C968.971 23.3335 973 27.0943 973 31.7335V33.6002C973 34.1156 972.552 34.5335 972 34.5335C971.448 34.5335 971 34.1156 971 33.6002V31.7335C971 28.1252 967.866 25.2002 964 25.2002Z" fill="white"/>
<path fill-rule="evenodd" clip-rule="evenodd" d="M964 23.3333C966.209 23.3333 968 21.6619 968 19.6C968 17.5381 966.209 15.8667 964 15.8667C961.791 15.8667 960 17.5381 960 19.6C960 21.6619 961.791 23.3333 964 23.3333ZM964 25.2C967.314 25.2 970 22.6928 970 19.6C970 16.5072 967.314 14 964 14C960.686 14 958 16.5072 958 19.6C958 22.6928 960.686 25.2 964 25.2Z" fill="white"/>
<path d="M1000.1 31H997L992.338 24.484V31H989.62V18.148H992.338V24.376L996.946 18.148H999.844L995.164 24.322L1000.1 31ZM1004.09 25.06C1004.09 25.264 1004.08 25.516 1004.05 25.816C1004.04 26.116 1004.02 26.422 1004 26.734C1003.99 27.046 1003.97 27.322 1003.95 27.562C1003.92 27.802 1003.9 27.97 1003.89 28.066L1008.43 21.172H1011.65V31H1009.06V27.076C1009.06 26.752 1009.07 26.398 1009.09 26.014C1009.12 25.618 1009.14 25.252 1009.17 24.916C1009.2 24.568 1009.23 24.304 1009.24 24.124L1004.72 31H1001.5V21.172H1004.09V25.06ZM1019.92 20.992C1021.03 20.992 1021.92 21.424 1022.61 22.288C1023.29 23.14 1023.63 24.4 1023.63 26.068C1023.63 27.184 1023.47 28.126 1023.15 28.894C1022.82 29.65 1022.38 30.22 1021.81 30.604C1021.25 30.988 1020.6 31.18 1019.85 31.18C1019.38 31.18 1018.98 31.12 1018.63 31C1018.29 30.88 1018 30.724 1017.76 30.532C1017.52 30.34 1017.31 30.136 1017.13 29.92H1016.99C1017.04 30.148 1017.07 30.388 1017.1 30.64C1017.12 30.88 1017.13 31.12 1017.13 31.36V35.32H1014.45V21.172H1016.63L1017.01 22.45H1017.13C1017.31 22.186 1017.53 21.946 1017.78 21.73C1018.03 21.502 1018.33 21.322 1018.68 21.19C1019.04 21.058 1019.46 20.992 1019.92 20.992ZM1019.06 23.134C1018.59 23.134 1018.22 23.23 1017.94 23.422C1017.67 23.614 1017.46 23.908 1017.33 24.304C1017.21 24.688 1017.15 25.174 1017.13 25.762V26.05C1017.13 26.686 1017.19 27.226 1017.31 27.67C1017.43 28.102 1017.64 28.432 1017.93 28.66C1018.21 28.888 1018.6 29.002 1019.1 29.002C1019.5 29.002 1019.84 28.888 1020.1 28.66C1020.37 28.432 1020.57 28.096 1020.7 27.652C1020.83 27.208 1020.9 26.668 1020.9 26.032C1020.9 25.072 1020.75 24.352 1020.45 23.872C1020.16 23.38 1019.7 23.134 1019.06 23.134ZM1028.44 25.06C1028.44 25.264 1028.42 25.516 1028.4 25.816C1028.39 26.116 1028.37 26.422 1028.35 26.734C1028.33 27.046 1028.32 27.322 1028.29 27.562C1028.27 27.802 1028.25 27.97 1028.24 28.066L1032.77 21.172H1036V31H1033.4V27.076C1033.4 26.752 1033.42 26.398 1033.44 26.014C1033.46 25.618 1033.49 25.252 1033.51 24.916C1033.55 24.568 1033.57 24.304 1033.58 24.124L1029.07 31H1025.84V21.172H1028.44V25.06ZM1053.43 21.172V31H1038.8V21.172H1041.48V28.984H1044.77V21.172H1047.46V28.984H1050.75V21.172H1053.43Z" fill="white"/>
<path d="M0.5 14C0.5 6.54416 6.54416 0.5 14 0.5H179.5V47.5H14C6.54416 47.5 0.5 41.4558 0.5 34V14Z" stroke="#E1E1E1"/>
<path d="M27 23H34C34.2652 23 34.5196 22.8946 34.7071 22.7071C34.8946 22.5196 35 22.2652 35 22V15C35 14.7348 34.8946 14.4804 34.7071 14.2929C34.5196 14.1054 34.2652 14 34 14H27C26.7348 14 26.4804 14.1054 26.2929 14.2929C26.1054 14.4804 26 14.7348 26 15V22C26 22.2652 26.1054 22.5196 26.2929 22.7071C26.4804 22.8946 26.7348 23 27 23ZM28 16H33V21H28V16Z" fill="#3F51B5"/>
<path d="M38 23H45C45.2652 23 45.5196 22.8946 45.7071 22.7071C45.8946 22.5196 46 22.2652 46 22V15C46 14.7348 45.8946 14.4804 45.7071 14.2929C45.5196 14.1054 45.2652 14 45 14H38C37.7348 14 37.4804 14.1054 37.2929 14.2929C37.1054 14.4804 37 14.7348 37 15V22C37 22.2652 37.1054 22.5196 37.2929 22.7071C37.4804 22.8946 37.7348 23 38 23ZM39 16H44V21H39V16Z" fill="#3F51B5"/>
<path d="M27 34H34C34.2652 34 34.5196 33.8946 34.7071 33.7071C34.8946 33.5196 35 33.2652 35 33V26C35 25.7348 34.8946 25.4804 34.7071 25.2929C34.5196 25.1054 34.2652 25 34 25H27C26.7348 25 26.4804 25.1054 26.2929 25.2929C26.1054 25.4804 26 25.7348 26 26V33C26 33.2652 26.1054 33.5196 26.2929 33.7071C26.4804 33.8946 26.7348 34 27 34ZM28 27H33V32H28V27Z" fill="#3F51B5"/>
<path d="M38 34H45C45.2652 34 45.5196 33.8946 45.7071 33.7071C45.8946 33.5196 46 33.2652 46 33V26C46 25.7348 45.8946 25.4804 45.7071 25.2929C45.5196 25.1054 45.2652 25 45 25H38C37.7348 25 37.4804 25.1054 37.2929 25.2929C37.1054 25.4804 37 25.7348 37 26V33C37 33.2652 37.1054 33.5196 37.2929 33.7071C37.4804 33.8946 37.7348 34 38 34ZM39 27H44V32H39V27Z" fill="#3F51B5"/>
<path d="M65.088 18.576C66.56 18.576 67.632 18.896 68.304 19.536C68.9867 20.1653 69.328 21.0347 69.328 22.144C69.328 22.6453 69.2533 23.1253 69.104 23.584C68.9547 24.032 68.704 24.4373 68.352 24.8C68.0107 25.152 67.5573 25.4293 66.992 25.632C66.4267 25.8347 65.728 25.936 64.896 25.936H63.856V30H61.44V18.576H65.088ZM64.96 20.56H63.856V23.952H64.656C65.1147 23.952 65.5093 23.8933 65.84 23.776C66.1707 23.6587 66.4267 23.472 66.608 23.216C66.7893 22.96 66.88 22.6293 66.88 22.224C66.88 21.6587 66.7253 21.2427 66.416 20.976C66.1067 20.6987 65.6213 20.56 64.96 20.56ZM70.0469 21.264H72.6549L74.3029 26.176C74.3562 26.336 74.3989 26.496 74.4309 26.656C74.4735 26.816 74.5055 26.9813 74.5269 27.152C74.5589 27.3227 74.5802 27.504 74.5909 27.696H74.6389C74.6709 27.4187 74.7135 27.1573 74.7669 26.912C74.8309 26.656 74.9002 26.4107 74.9749 26.176L76.5909 21.264H79.1509L75.4549 31.12C75.2309 31.7173 74.9375 32.2187 74.5749 32.624C74.2229 33.0293 73.8122 33.3333 73.3429 33.536C72.8735 33.7387 72.3615 33.84 71.8069 33.84C71.5402 33.84 71.3055 33.824 71.1029 33.792C70.9109 33.7707 70.7402 33.744 70.5909 33.712V31.824C70.7082 31.8453 70.8469 31.8667 71.0069 31.888C71.1775 31.9093 71.3535 31.92 71.5349 31.92C71.8655 31.92 72.1482 31.8507 72.3829 31.712C72.6282 31.5733 72.8309 31.3813 72.9909 31.136C73.1509 30.9013 73.2789 30.6453 73.3749 30.368L73.5189 29.936L70.0469 21.264ZM86.1323 21.264H88.7563L85.3003 25.456L89.0603 30H86.3563L82.7883 25.568V30H80.4043V21.264H82.7883V25.504L86.1323 21.264ZM92.6945 21.264V24.624H96.0225V21.264H98.4065V30H96.0225V26.4H92.6945V30H90.3105V21.264H92.6945ZM108.728 30H106.344V23.056H104.152C104.046 24.336 103.912 25.4293 103.752 26.336C103.603 27.232 103.411 27.9627 103.176 28.528C102.952 29.0933 102.664 29.5093 102.312 29.776C101.96 30.032 101.528 30.16 101.016 30.16C100.739 30.16 100.488 30.1387 100.264 30.096C100.04 30.0533 99.8376 29.9893 99.6562 29.904V28C99.7736 28.0427 99.8963 28.08 100.024 28.112C100.152 28.144 100.286 28.16 100.424 28.16C100.574 28.16 100.712 28.1013 100.84 27.984C100.979 27.8667 101.107 27.6587 101.224 27.36C101.352 27.0613 101.47 26.6507 101.576 26.128C101.683 25.6053 101.779 24.9493 101.864 24.16C101.96 23.36 102.046 22.3947 102.12 21.264H108.728V30ZM114.801 21.088C115.974 21.088 116.87 21.344 117.489 21.856C118.118 22.3573 118.433 23.1307 118.433 24.176V30H116.769L116.305 28.816H116.241C115.995 29.1253 115.739 29.3813 115.473 29.584C115.217 29.7867 114.918 29.9307 114.577 30.016C114.246 30.112 113.835 30.16 113.345 30.16C112.833 30.16 112.369 30.064 111.953 29.872C111.547 29.6693 111.227 29.3653 110.993 28.96C110.758 28.544 110.641 28.0213 110.641 27.392C110.641 26.464 110.966 25.7813 111.617 25.344C112.267 24.896 113.243 24.6507 114.545 24.608L116.065 24.56V24.176C116.065 23.7173 115.942 23.3813 115.697 23.168C115.462 22.9547 115.131 22.848 114.705 22.848C114.278 22.848 113.862 22.912 113.457 23.04C113.051 23.1573 112.646 23.3067 112.241 23.488L111.457 21.872C111.926 21.6267 112.443 21.4347 113.009 21.296C113.585 21.1573 114.182 21.088 114.801 21.088ZM115.137 25.984C114.369 26.0053 113.835 26.144 113.537 26.4C113.238 26.656 113.089 26.992 113.089 27.408C113.089 27.7707 113.195 28.032 113.409 28.192C113.622 28.3413 113.899 28.416 114.241 28.416C114.753 28.416 115.185 28.2667 115.537 27.968C115.889 27.6587 116.065 27.2267 116.065 26.672V25.952L115.137 25.984ZM125.737 21.104C126.718 21.104 127.513 21.488 128.121 22.256C128.729 23.0133 129.033 24.1333 129.033 25.616C129.033 26.608 128.889 27.4453 128.601 28.128C128.313 28.8 127.918 29.3067 127.417 29.648C126.916 29.9893 126.334 30.16 125.673 30.16C125.257 30.16 124.894 30.1067 124.585 30C124.286 29.8933 124.03 29.7547 123.817 29.584C123.604 29.4133 123.417 29.232 123.257 29.04H123.129C123.172 29.2427 123.204 29.456 123.225 29.68C123.246 29.8933 123.257 30.1067 123.257 30.32V33.84H120.873V21.264H122.809L123.145 22.4H123.257C123.417 22.1653 123.609 21.952 123.833 21.76C124.057 21.5573 124.324 21.3973 124.633 21.28C124.953 21.1627 125.321 21.104 125.737 21.104ZM124.969 23.008C124.553 23.008 124.222 23.0933 123.977 23.264C123.732 23.4347 123.55 23.696 123.433 24.048C123.326 24.3893 123.268 24.8213 123.257 25.344V25.6C123.257 26.1653 123.31 26.6453 123.417 27.04C123.524 27.424 123.705 27.7173 123.961 27.92C124.217 28.1227 124.564 28.224 125.001 28.224C125.364 28.224 125.662 28.1227 125.897 27.92C126.132 27.7173 126.308 27.4187 126.425 27.024C126.542 26.6293 126.601 26.1493 126.601 25.584C126.601 24.7307 126.468 24.0907 126.201 23.664C125.945 23.2267 125.534 23.008 124.969 23.008Z" fill="#3F51B5"/>
<path d="M153.571 27.1771L147.571 21.8438C147.438 21.727 147.357 21.5624 147.346 21.3862C147.335 21.2099 147.394 21.0364 147.511 20.9038C147.627 20.7713 147.792 20.6906 147.968 20.6793C148.144 20.6681 148.318 20.7272 148.451 20.8438L154.011 25.7837L159.571 20.8438C159.704 20.736 159.875 20.684 160.046 20.6987C160.217 20.7134 160.376 20.7936 160.489 20.9225C160.603 21.0515 160.662 21.2193 160.655 21.3909C160.648 21.5625 160.574 21.7248 160.451 21.8438L154.451 27.1771C154.329 27.284 154.172 27.3429 154.011 27.3429C153.849 27.3429 153.692 27.284 153.571 27.1771Z" fill="#3F51B5"/>
<path d="M184.5 0.5H725C732.456 0.5 738.5 6.54416 738.5 14V34C738.5 41.4558 732.456 47.5 725 47.5H184.5V0.5Z" fill="#F8F8F8" stroke="#E1E1E1"/>
<rect x="668.25" y="0.25" width="0.5" height="47.5" fill="#E1E1E1" stroke="#E1E1E1" stroke-width="0.5"/>
<path d="M222.531 18.5781L217.477 24.125L221.688 28.8125H223.328V32.9844H222.055V30H221.141L215.891 24.2031V30H214.562V18.5781H215.891V24.1094L221.008 18.5781H222.531ZM226.195 21.4375V26.8203C226.195 26.9245 226.193 27.0599 226.188 27.2266C226.182 27.388 226.174 27.5625 226.164 27.75C226.154 27.9323 226.143 28.1094 226.133 28.2812C226.128 28.4479 226.12 28.5859 226.109 28.6953L230.781 21.4375H232.375V30H231.164V24.75C231.164 24.5833 231.167 24.3698 231.172 24.1094C231.177 23.849 231.185 23.5938 231.195 23.3438C231.206 23.0885 231.214 22.8906 231.219 22.75L226.562 30H224.961V21.4375H226.195ZM241.406 21.4375V28.8984H242.633V32.9609H241.375V30H235.312V32.9609H234.07V28.8984H234.742C235.232 28.2214 235.638 27.4792 235.961 26.6719C236.284 25.8646 236.529 25.0182 236.695 24.1328C236.862 23.2422 236.951 22.3438 236.961 21.4375H241.406ZM240.148 22.4688H238.117C238.07 23.2292 237.958 24.0026 237.781 24.7891C237.609 25.5755 237.38 26.3255 237.094 27.0391C236.807 27.7474 236.474 28.3672 236.094 28.8984H240.148V22.4688ZM245.57 21.4375V26.8203C245.57 26.9245 245.568 27.0599 245.562 27.2266C245.557 27.388 245.549 27.5625 245.539 27.75C245.529 27.9323 245.518 28.1094 245.508 28.2812C245.503 28.4479 245.495 28.5859 245.484 28.6953L250.156 21.4375H251.75V30H250.539V24.75C250.539 24.5833 250.542 24.3698 250.547 24.1094C250.552 23.849 250.56 23.5938 250.57 23.3438C250.581 23.0885 250.589 22.8906 250.594 22.75L245.938 30H244.336V21.4375H245.57ZM258.531 21.2812C259.599 21.2812 260.451 21.6484 261.086 22.3828C261.721 23.1172 262.039 24.2214 262.039 25.6953C262.039 26.6693 261.893 27.487 261.602 28.1484C261.31 28.8099 260.898 29.3099 260.367 29.6484C259.841 29.987 259.219 30.1562 258.5 30.1562C258.047 30.1562 257.648 30.0964 257.305 29.9766C256.961 29.8568 256.667 29.6953 256.422 29.4922C256.177 29.2891 255.974 29.0677 255.812 28.8281H255.719C255.734 29.0312 255.753 29.276 255.773 29.5625C255.799 29.849 255.812 30.099 255.812 30.3125V33.8281H254.508V21.4375H255.578L255.75 22.7031H255.812C255.979 22.4427 256.182 22.2057 256.422 21.9922C256.661 21.7734 256.953 21.6016 257.297 21.4766C257.646 21.3464 258.057 21.2812 258.531 21.2812ZM258.305 22.375C257.711 22.375 257.232 22.4896 256.867 22.7188C256.508 22.9479 256.245 23.2917 256.078 23.75C255.911 24.2031 255.823 24.7734 255.812 25.4609V25.7109C255.812 26.4349 255.891 27.0469 256.047 27.5469C256.208 28.0469 256.471 28.4271 256.836 28.6875C257.206 28.9479 257.701 29.0781 258.32 29.0781C258.852 29.0781 259.294 28.9349 259.648 28.6484C260.003 28.362 260.266 27.9635 260.438 27.4531C260.615 26.9375 260.703 26.3464 260.703 25.6797C260.703 24.6693 260.505 23.8672 260.109 23.2734C259.719 22.6745 259.117 22.375 258.305 22.375ZM265.539 21.4375V26.8203C265.539 26.9245 265.536 27.0599 265.531 27.2266C265.526 27.388 265.518 27.5625 265.508 27.75C265.497 27.9323 265.487 28.1094 265.477 28.2812C265.471 28.4479 265.464 28.5859 265.453 28.6953L270.125 21.4375H271.719V30H270.508V24.75C270.508 24.5833 270.51 24.3698 270.516 24.1094C270.521 23.849 270.529 23.5938 270.539 23.3438C270.549 23.0885 270.557 22.8906 270.562 22.75L265.906 30H264.305V21.4375H265.539ZM285.961 21.4375V30H274.477V21.4375H275.773V28.8984H279.562V21.4375H280.867V28.8984H284.664V21.4375H285.961Z" fill="#AAAAAA"/>
<path d="M698.939 13.9313C693.981 13.9313 689.941 17.9706 689.941 22.9293C689.941 27.888 693.981 31.9352 698.939 31.9352C701.057 31.9352 703.005 31.193 704.545 29.9606L708.293 33.7067C708.482 33.888 708.735 33.988 708.997 33.9853C709.259 33.9827 709.509 33.8775 709.695 33.6924C709.88 33.5072 709.986 33.2569 709.989 32.9949C709.992 32.7329 709.892 32.4801 709.711 32.2907L705.963 28.5427C707.196 27.0008 707.939 25.0498 707.939 22.9293C707.939 17.9706 703.898 13.9313 698.939 13.9313ZM698.939 15.9313C702.817 15.9313 705.937 19.0515 705.937 22.9293C705.937 26.8072 702.817 29.9352 698.939 29.9352C695.062 29.9352 691.941 26.8072 691.941 22.9293C691.941 19.0515 695.062 15.9313 698.939 15.9313Z" fill="#3F51B5"/>
<rect x="213" y="10" width="2" height="28" fill="#3F51B5"/>
<rect x="803" width="105" height="48" rx="14" fill="#EEF4FF"/>
<path d="M883.57 29.1771L877.57 23.8438C877.438 23.727 877.357 23.5624 877.346 23.3862C877.335 23.2099 877.394 23.0364 877.51 22.9038C877.627 22.7713 877.792 22.6906 877.968 22.6793C878.144 22.6681 878.318 22.7272 878.45 22.8438L884.01 27.7837L889.57 22.8438C889.704 22.736 889.874 22.684 890.046 22.6987C890.217 22.7134 890.376 22.7936 890.489 22.9225C890.603 23.0515 890.662 23.2193 890.655 23.3909C890.647 23.5625 890.574 23.7248 890.45 23.8438L884.45 29.1771C884.329 29.284 884.172 29.3429 884.01 29.3429C883.848 29.3429 883.692 29.284 883.57 29.1771Z" fill="#3F51B5"/>
<g clip-path="url(#clip0_1003_2304)">
<path d="M819 26H839V31H819V26Z" fill="#1EB53A"/>
<path d="M819 16H839V21H819V16Z" fill="#0099B5"/>
<path d="M819 20.7998H839V26.1998H819V20.7998Z" fill="#CE1126"/>
<path d="M819 21.1H839V25.9H819V21.1Z" fill="white"/>
<path d="M823.2 20.2C824.194 20.2 825 19.3941 825 18.4C825 17.4059 824.194 16.6 823.2 16.6C822.206 16.6 821.4 17.4059 821.4 18.4C821.4 19.3941 822.206 20.2 823.2 20.2Z" fill="white"/>
<path d="M823.8 20.2C824.794 20.2 825.6 19.3941 825.6 18.4C825.6 17.4059 824.794 16.6 823.8 16.6C822.806 16.6 822 17.4059 822 18.4C822 19.3941 822.806 20.2 823.8 20.2Z" fill="#0099B5"/>
<path d="M827.159 19.4805L827.045 19.8225L827.219 19.8825" fill="white"/>
<path d="M827.159 19.4805L827.045 19.8225L827.219 19.8825" fill="white"/>
<path d="M827.159 19.4805L827.045 19.8225L827.219 19.8825" fill="white"/>
<path d="M827.159 19.4805L827.045 19.8225L827.219 19.8825" fill="white"/>
<path d="M827.159 19.4805L827.045 19.8225L827.219 19.8825" fill="white"/>
<path d="M827.159 19.4805L827.045 19.8225L827.219 19.8825" fill="white"/>
<path d="M827.159 19.4805L827.045 19.8225L827.219 19.8825" fill="white"/>
<path d="M827.159 19.4805L827.045 19.8225L827.219 19.8825" fill="white"/>
<path d="M827.159 19.4805L827.045 19.8225L827.219 19.8825" fill="white"/>
<path d="M827.159 19.4805L827.045 19.8225L827.219 19.8825" fill="white"/>
<path d="M827.159 19.4805L827.045 19.8225L827.219 19.8825" fill="white"/>
<path d="M827.159 19.4805L827.045 19.8225L827.219 19.8825" fill="white"/>
<path d="M827.159 19.4805L827.045 19.8225L827.219 19.8825" fill="white"/>
<path d="M827.159 19.4805L827.045 19.8225L827.219 19.8825" fill="white"/>
<path d="M827.159 19.4805L827.045 19.8225L827.219 19.8825" fill="white"/>
<path d="M827.159 19.4805L827.045 19.8225L827.219 19.8825" fill="white"/>
<path d="M827.159 19.4805L827.045 19.8225L827.219 19.8825" fill="white"/>
<path d="M827.159 19.4805L827.045 19.8225L827.219 19.8825" fill="white"/>
<path d="M827.159 19.4805L827.045 19.8225L827.219 19.8825" fill="white"/>
<path d="M827.159 19.4805L827.045 19.8225L827.219 19.8825" fill="white"/>
<path d="M827.159 19.4805L827.045 19.8225L827.219 19.8825" fill="white"/>
<path d="M827.159 19.4805L827.045 19.8225L827.219 19.8825" fill="white"/>
<path d="M827.159 19.4805L827.045 19.8225L827.219 19.8825" fill="white"/>
<path d="M827.159 19.4805L827.045 19.8225L827.219 19.8825" fill="white"/>
<path d="M827.159 19.4805L827.045 19.8225L827.219 19.8825" fill="white"/>
<path d="M827.159 19.4805L827.045 19.8225L827.219 19.8825" fill="white"/>
<path d="M827.159 19.4805L827.045 19.8225L827.219 19.8825" fill="white"/>
<path d="M827.159 19.4805L827.045 19.8225L827.219 19.8825" fill="white"/>
<path d="M827.159 19.4805L827.045 19.8225L827.219 19.8825" fill="white"/>
<path d="M827.159 19.4805L827.045 19.8225L827.219 19.8825" fill="white"/>
<path d="M827.159 19.4805L827.045 19.8225L827.219 19.8825" fill="white"/>
<path d="M827.159 19.4805L827.045 19.8225L827.219 19.8825" fill="white"/>
<path d="M827.159 19.4805L827.045 19.8225L827.219 19.8825" fill="white"/>
<path d="M827.159 19.4805L827.045 19.8225L827.219 19.8825" fill="white"/>
<path d="M827.159 19.4805L827.045 19.8225L827.219 19.8825" fill="white"/>
<path d="M827.159 19.4805L827.045 19.8225L827.219 19.8825" fill="white"/>
<path d="M827.159 19.4805L827.045 19.8225L827.219 19.8825" fill="white"/>
<path d="M827.159 19.4805L827.045 19.8225L827.219 19.8825" fill="white"/>
<path d="M827.159 19.4805L827.045 19.8225L827.219 19.8825" fill="white"/>
<path d="M827.159 19.4805L827.045 19.8225L827.219 19.8825" fill="white"/>
<path d="M827.159 19.4805L827.045 19.8225L827.219 19.8825" fill="white"/>
<path d="M827.159 19.4805L827.045 19.8225L827.219 19.8825" fill="white"/>
<path d="M827.159 19.4805L827.045 19.8225L827.219 19.8825" fill="white"/>
<path d="M827.159 19.4805L827.045 19.8225L827.219 19.8825" fill="white"/>
<path d="M827.159 19.4805L827.045 19.8225L827.219 19.8825" fill="white"/>
<path d="M827.159 19.4805L827.045 19.8225L827.219 19.8825" fill="white"/>
<path d="M827.159 19.4805L827.045 19.8225L827.219 19.8825" fill="white"/>
<path d="M827.159 19.4805L827.045 19.8225L827.219 19.8825" fill="white"/>
<path d="M827.159 19.4805L827.045 19.8225L827.219 19.8825" fill="white"/>
<path d="M827.159 19.4805L827.045 19.8225L827.219 19.8825" fill="white"/>
<path d="M827.159 19.4805L827.045 19.8225L827.219 19.8825" fill="white"/>
<path d="M827.159 19.4805L827.045 19.8225L827.219 19.8825" fill="white"/>
<path d="M827.159 19.4805L827.045 19.8225L827.219 19.8825" fill="white"/>
<path d="M827.159 19.4805L827.045 19.8225L827.219 19.8825" fill="white"/>
<path d="M827.159 19.4805L827.045 19.8225L827.219 19.8825" fill="white"/>
<path d="M827.159 19.4805L827.045 19.8225L827.219 19.8825" fill="white"/>
<path d="M827.159 19.4805L827.045 19.8225L827.219 19.8825" fill="white"/>
<path d="M827.159 19.4805L827.045 19.8225L827.219 19.8825" fill="white"/>
<path d="M827.159 19.4805L827.045 19.8225L827.219 19.8825" fill="white"/>
<path d="M827.159 19.4805L827.045 19.8225L827.219 19.8825" fill="white"/>
</g>
<path d="M857.264 14.816C857.211 15.3707 857.056 15.8613 856.8 16.288C856.544 16.704 856.144 17.0293 855.6 17.264C855.056 17.4987 854.325 17.616 853.408 17.616C852.469 17.616 851.733 17.504 851.2 17.28C850.677 17.0453 850.304 16.72 850.08 16.304C849.856 15.888 849.723 15.392 849.68 14.816H851.808C851.861 15.4027 852.011 15.792 852.256 15.984C852.501 16.176 852.901 16.272 853.456 16.272C853.915 16.272 854.288 16.1707 854.576 15.968C854.875 15.7547 855.051 15.3707 855.104 14.816H857.264ZM855.072 26.656C854.752 27.3813 854.411 28.0107 854.048 28.544C853.696 29.0667 853.243 29.4667 852.688 29.744C852.133 30.0213 851.408 30.16 850.512 30.16C850.235 30.16 849.931 30.1387 849.6 30.096C849.269 30.0533 848.965 29.9947 848.688 29.92V27.84C848.944 27.9467 849.227 28.0213 849.536 28.064C849.845 28.1067 850.133 28.128 850.4 28.128C850.752 28.128 851.035 28.0693 851.248 27.952C851.472 27.8347 851.648 27.6747 851.776 27.472C851.915 27.2587 852.027 27.0293 852.112 26.784L848.16 18.576H850.72L852.848 23.52C852.901 23.6267 852.965 23.7653 853.04 23.936C853.115 24.1067 853.189 24.2827 853.264 24.464C853.339 24.6453 853.397 24.8053 853.44 24.944H853.52C853.563 24.816 853.616 24.6613 853.68 24.48C853.755 24.288 853.829 24.096 853.904 23.904C853.989 23.7013 854.064 23.5253 854.128 23.376L856.112 18.576H858.608L855.072 26.656ZM863.041 21.104C863.671 21.104 864.257 21.1893 864.801 21.36C865.356 21.52 865.799 21.7707 866.129 22.112C866.471 22.4533 866.641 22.8907 866.641 23.424C866.641 23.9467 866.481 24.3627 866.161 24.672C865.852 24.9813 865.431 25.2053 864.897 25.344V25.424C865.271 25.5093 865.607 25.632 865.905 25.792C866.204 25.9413 866.439 26.1493 866.609 26.416C866.791 26.672 866.881 27.0187 866.881 27.456C866.881 27.936 866.727 28.384 866.417 28.8C866.119 29.2053 865.649 29.536 865.009 29.792C864.38 30.0373 863.569 30.16 862.577 30.16C862.108 30.16 861.665 30.1387 861.249 30.096C860.833 30.0533 860.455 29.9947 860.113 29.92C859.772 29.8347 859.473 29.7333 859.217 29.616V27.648C859.58 27.8187 860.023 27.9733 860.545 28.112C861.079 28.2507 861.644 28.32 862.241 28.32C862.679 28.32 863.068 28.288 863.409 28.224C863.761 28.16 864.039 28.0533 864.241 27.904C864.455 27.7547 864.561 27.5573 864.561 27.312C864.561 27.0773 864.471 26.8853 864.289 26.736C864.108 26.576 863.836 26.4587 863.473 26.384C863.111 26.3093 862.647 26.272 862.081 26.272H861.153V24.624H862.033C862.823 24.624 863.431 24.56 863.857 24.432C864.295 24.304 864.513 24.064 864.513 23.712C864.513 23.4347 864.375 23.2267 864.097 23.088C863.82 22.9387 863.367 22.864 862.737 22.864C862.321 22.864 861.868 22.912 861.377 23.008C860.887 23.104 860.423 23.2427 859.985 23.424L859.281 21.76C859.783 21.568 860.332 21.4133 860.929 21.296C861.527 21.168 862.231 21.104 863.041 21.104Z" fill="#3F51B5"/>
<defs>
<clipPath id="clip0_1003_2304">
<rect x="819" y="16" width="20" height="15" rx="2" fill="white"/>
</clipPath>
</defs>
</svg>
