<svg width="1024" height="538" viewBox="0 0 1024 538" fill="none" xmlns="http://www.w3.org/2000/svg">
<g filter="url(#filter0_d_7306_7667)">
<rect x="31" y="33" width="966" height="463" rx="4" fill="white"/>
</g>
<path d="M74.79 78.06C73.93 78.06 73.16 78.23 72.48 78.57C71.82 78.91 71.26 79.4 70.8 80.04C70.34 80.66 69.99 81.42 69.75 82.32C69.53 83.22 69.42 84.23 69.42 85.35C69.42 86.87 69.6 88.17 69.96 89.25C70.34 90.31 70.93 91.12 71.73 91.68C72.53 92.24 73.55 92.52 74.79 92.52C75.67 92.52 76.54 92.42 77.4 92.22C78.28 92.02 79.23 91.74 80.25 91.38V95.19C79.31 95.57 78.38 95.85 77.46 96.03C76.54 96.21 75.51 96.3 74.37 96.3C72.17 96.3 70.35 95.85 68.91 94.95C67.49 94.03 66.44 92.75 65.76 91.11C65.08 89.45 64.74 87.52 64.74 85.32C64.74 83.7 64.96 82.22 65.4 80.88C65.84 79.52 66.48 78.35 67.32 77.37C68.18 76.39 69.23 75.63 70.47 75.09C71.73 74.55 73.17 74.28 74.79 74.28C75.85 74.28 76.91 74.42 77.97 74.7C79.05 74.96 80.08 75.32 81.06 75.78L79.59 79.47C78.79 79.09 77.98 78.76 77.16 78.48C76.36 78.2 75.57 78.06 74.79 78.06ZM99.3216 87.78C99.3216 89.14 99.1316 90.35 98.7516 91.41C98.3916 92.47 97.8616 93.37 97.1616 94.11C96.4816 94.83 95.6516 95.38 94.6716 95.76C93.6916 96.12 92.5816 96.3 91.3416 96.3C90.2016 96.3 89.1416 96.12 88.1616 95.76C87.2016 95.38 86.3716 94.83 85.6716 94.11C84.9716 93.37 84.4216 92.47 84.0216 91.41C83.6416 90.35 83.4516 89.14 83.4516 87.78C83.4516 85.96 83.7716 84.43 84.4116 83.19C85.0516 81.93 85.9716 80.97 87.1716 80.31C88.3716 79.65 89.7916 79.32 91.4316 79.32C92.9716 79.32 94.3316 79.65 95.5116 80.31C96.6916 80.97 97.6216 81.93 98.3016 83.19C98.9816 84.43 99.3216 85.96 99.3216 87.78ZM88.0116 87.78C88.0116 88.86 88.1216 89.77 88.3416 90.51C88.5816 91.23 88.9516 91.78 89.4516 92.16C89.9516 92.52 90.6016 92.7 91.4016 92.7C92.2016 92.7 92.8416 92.52 93.3216 92.16C93.8216 91.78 94.1816 91.23 94.4016 90.51C94.6416 89.77 94.7616 88.86 94.7616 87.78C94.7616 86.7 94.6416 85.8 94.4016 85.08C94.1816 84.36 93.8216 83.82 93.3216 83.46C92.8216 83.1 92.1716 82.92 91.3716 82.92C90.1916 82.92 89.3316 83.33 88.7916 84.15C88.2716 84.95 88.0116 86.16 88.0116 87.78ZM108.986 79.32C110.166 79.32 111.266 79.48 112.286 79.8C113.326 80.1 114.156 80.57 114.776 81.21C115.416 81.85 115.736 82.67 115.736 83.67C115.736 84.65 115.436 85.43 114.836 86.01C114.256 86.59 113.466 87.01 112.466 87.27V87.42C113.166 87.58 113.796 87.81 114.356 88.11C114.916 88.39 115.356 88.78 115.676 89.28C116.016 89.76 116.186 90.41 116.186 91.23C116.186 92.13 115.896 92.97 115.316 93.75C114.756 94.51 113.876 95.13 112.676 95.61C111.496 96.07 109.976 96.3 108.116 96.3C107.236 96.3 106.406 96.26 105.626 96.18C104.846 96.1 104.136 95.99 103.496 95.85C102.856 95.69 102.296 95.5 101.816 95.28V91.59C102.496 91.91 103.326 92.2 104.306 92.46C105.306 92.72 106.366 92.85 107.486 92.85C108.306 92.85 109.036 92.79 109.676 92.67C110.336 92.55 110.856 92.35 111.236 92.07C111.636 91.79 111.836 91.42 111.836 90.96C111.836 90.52 111.666 90.16 111.326 89.88C110.986 89.58 110.476 89.36 109.796 89.22C109.116 89.08 108.246 89.01 107.186 89.01H105.446V85.92H107.096C108.576 85.92 109.716 85.8 110.516 85.56C111.336 85.32 111.746 84.87 111.746 84.21C111.746 83.69 111.486 83.3 110.966 83.04C110.446 82.76 109.596 82.62 108.416 82.62C107.636 82.62 106.786 82.71 105.866 82.89C104.946 83.07 104.076 83.33 103.256 83.67L101.936 80.55C102.876 80.19 103.906 79.9 105.026 79.68C106.146 79.44 107.466 79.32 108.986 79.32ZM134.326 96H129.856V82.98H125.746C125.546 85.38 125.296 87.43 124.996 89.13C124.716 90.81 124.356 92.18 123.916 93.24C123.496 94.3 122.956 95.08 122.296 95.58C121.636 96.06 120.826 96.3 119.866 96.3C119.346 96.3 118.876 96.26 118.456 96.18C118.036 96.1 117.656 95.98 117.316 95.82V92.25C117.536 92.33 117.766 92.4 118.006 92.46C118.246 92.52 118.496 92.55 118.756 92.55C119.036 92.55 119.296 92.44 119.536 92.22C119.796 92 120.036 91.61 120.256 91.05C120.496 90.49 120.716 89.72 120.916 88.74C121.116 87.76 121.296 86.53 121.456 85.05C121.636 83.55 121.796 81.74 121.936 79.62H134.326V96ZM145.712 79.29C147.912 79.29 149.592 79.77 150.752 80.73C151.932 81.67 152.522 83.12 152.522 85.08V96H149.402L148.532 93.78H148.412C147.952 94.36 147.472 94.84 146.972 95.22C146.492 95.6 145.932 95.87 145.292 96.03C144.672 96.21 143.902 96.3 142.982 96.3C142.022 96.3 141.152 96.12 140.372 95.76C139.612 95.38 139.012 94.81 138.572 94.05C138.132 93.27 137.912 92.29 137.912 91.11C137.912 89.37 138.522 88.09 139.742 87.27C140.962 86.43 142.792 85.97 145.232 85.89L148.082 85.8V85.08C148.082 84.22 147.852 83.59 147.392 83.19C146.952 82.79 146.332 82.59 145.532 82.59C144.732 82.59 143.952 82.71 143.192 82.95C142.432 83.17 141.672 83.45 140.912 83.79L139.442 80.76C140.322 80.3 141.292 79.94 142.352 79.68C143.432 79.42 144.552 79.29 145.712 79.29ZM146.342 88.47C144.902 88.51 143.902 88.77 143.342 89.25C142.782 89.73 142.502 90.36 142.502 91.14C142.502 91.82 142.702 92.31 143.102 92.61C143.502 92.89 144.022 93.03 144.662 93.03C145.622 93.03 146.432 92.75 147.092 92.19C147.752 91.61 148.082 90.8 148.082 89.76V88.41L146.342 88.47ZM177.738 79.62V96H173.568V87.96C173.568 87.16 173.578 86.38 173.598 85.62C173.638 84.86 173.688 84.16 173.748 83.52H173.658L169.128 96H165.768L161.178 83.49H161.058C161.138 84.15 161.188 84.86 161.208 85.62C161.248 86.36 161.268 87.18 161.268 88.08V96H157.098V79.62H163.428L167.508 90.72L171.648 79.62H177.738ZM189.13 79.29C191.33 79.29 193.01 79.77 194.17 80.73C195.35 81.67 195.94 83.12 195.94 85.08V96H192.82L191.95 93.78H191.83C191.37 94.36 190.89 94.84 190.39 95.22C189.91 95.6 189.35 95.87 188.71 96.03C188.09 96.21 187.32 96.3 186.4 96.3C185.44 96.3 184.57 96.12 183.79 95.76C183.03 95.38 182.43 94.81 181.99 94.05C181.55 93.27 181.33 92.29 181.33 91.11C181.33 89.37 181.94 88.09 183.16 87.27C184.38 86.43 186.21 85.97 188.65 85.89L191.5 85.8V85.08C191.5 84.22 191.27 83.59 190.81 83.19C190.37 82.79 189.75 82.59 188.95 82.59C188.15 82.59 187.37 82.71 186.61 82.95C185.85 83.17 185.09 83.45 184.33 83.79L182.86 80.76C183.74 80.3 184.71 79.94 185.77 79.68C186.85 79.42 187.97 79.29 189.13 79.29ZM189.76 88.47C188.32 88.51 187.32 88.77 186.76 89.25C186.2 89.73 185.92 90.36 185.92 91.14C185.92 91.82 186.12 92.31 186.52 92.61C186.92 92.89 187.44 93.03 188.08 93.03C189.04 93.03 189.85 92.75 190.51 92.19C191.17 91.61 191.5 90.8 191.5 89.76V88.41L189.76 88.47ZM215.186 96H210.716V82.98H206.606C206.406 85.38 206.156 87.43 205.856 89.13C205.576 90.81 205.216 92.18 204.776 93.24C204.356 94.3 203.816 95.08 203.156 95.58C202.496 96.06 201.686 96.3 200.726 96.3C200.206 96.3 199.736 96.26 199.316 96.18C198.896 96.1 198.516 95.98 198.176 95.82V92.25C198.396 92.33 198.626 92.4 198.866 92.46C199.106 92.52 199.356 92.55 199.616 92.55C199.896 92.55 200.156 92.44 200.396 92.22C200.656 92 200.896 91.61 201.116 91.05C201.356 90.49 201.576 89.72 201.776 88.74C201.976 87.76 202.156 86.53 202.316 85.05C202.496 83.55 202.656 81.74 202.796 79.62H215.186V96ZM226.572 79.29C228.772 79.29 230.452 79.77 231.612 80.73C232.792 81.67 233.382 83.12 233.382 85.08V96H230.262L229.392 93.78H229.272C228.812 94.36 228.332 94.84 227.832 95.22C227.352 95.6 226.792 95.87 226.152 96.03C225.532 96.21 224.762 96.3 223.842 96.3C222.882 96.3 222.012 96.12 221.232 95.76C220.472 95.38 219.872 94.81 219.432 94.05C218.992 93.27 218.772 92.29 218.772 91.11C218.772 89.37 219.382 88.09 220.602 87.27C221.822 86.43 223.652 85.97 226.092 85.89L228.942 85.8V85.08C228.942 84.22 228.712 83.59 228.252 83.19C227.812 82.79 227.192 82.59 226.392 82.59C225.592 82.59 224.812 82.71 224.052 82.95C223.292 83.17 222.532 83.45 221.772 83.79L220.302 80.76C221.182 80.3 222.152 79.94 223.212 79.68C224.292 79.42 225.412 79.29 226.572 79.29ZM227.202 88.47C225.762 88.51 224.762 88.77 224.202 89.25C223.642 89.73 223.362 90.36 223.362 91.14C223.362 91.82 223.562 92.31 223.962 92.61C224.362 92.89 224.882 93.03 225.522 93.03C226.482 93.03 227.292 92.75 227.952 92.19C228.612 91.61 228.942 90.8 228.942 89.76V88.41L227.202 88.47ZM247.077 79.32C248.917 79.32 250.407 80.04 251.547 81.48C252.687 82.9 253.257 85 253.257 87.78C253.257 89.64 252.987 91.21 252.447 92.49C251.907 93.75 251.167 94.7 250.227 95.34C249.287 95.98 248.197 96.3 246.957 96.3C246.177 96.3 245.497 96.2 244.917 96C244.357 95.8 243.877 95.54 243.477 95.22C243.077 94.9 242.727 94.56 242.427 94.2H242.187C242.267 94.58 242.327 94.98 242.367 95.4C242.407 95.8 242.427 96.2 242.427 96.6V103.2H237.957V79.62H241.587L242.217 81.75H242.427C242.727 81.31 243.087 80.91 243.507 80.55C243.927 80.17 244.427 79.87 245.007 79.65C245.607 79.43 246.297 79.32 247.077 79.32ZM245.637 82.89C244.857 82.89 244.237 83.05 243.777 83.37C243.317 83.69 242.977 84.18 242.757 84.84C242.557 85.48 242.447 86.29 242.427 87.27V87.75C242.427 88.81 242.527 89.71 242.727 90.45C242.927 91.17 243.267 91.72 243.747 92.1C244.227 92.48 244.877 92.67 245.697 92.67C246.377 92.67 246.937 92.48 247.377 92.1C247.817 91.72 248.147 91.16 248.367 90.42C248.587 89.68 248.697 88.78 248.697 87.72C248.697 86.12 248.447 84.92 247.947 84.12C247.467 83.3 246.697 82.89 245.637 82.89Z" fill="#11142D"/>
<path d="M65.707 276.204L70.123 269.047H71.8389V279H70.123V271.836L65.707 279H63.998V269.047H65.707V276.204ZM76.8539 277.824C77.1228 277.824 77.3643 277.772 77.5785 277.667C77.7973 277.558 77.9727 277.407 78.1049 277.216C78.2416 277.024 78.3168 276.803 78.3305 276.553H79.8822C79.8731 277.031 79.7318 277.466 79.4584 277.858C79.185 278.25 78.8227 278.562 78.3715 278.795C77.9203 279.023 77.4213 279.137 76.8744 279.137C76.3093 279.137 75.8171 279.041 75.3979 278.85C74.9786 278.654 74.6299 278.385 74.352 278.043C74.074 277.701 73.8643 277.307 73.723 276.86C73.5863 276.414 73.518 275.935 73.518 275.425V275.186C73.518 274.675 73.5863 274.197 73.723 273.75C73.8643 273.299 74.074 272.902 74.352 272.561C74.6299 272.219 74.9786 271.952 75.3979 271.761C75.8171 271.565 76.307 271.467 76.8676 271.467C77.46 271.467 77.9796 271.585 78.4262 271.822C78.8728 272.055 79.2237 272.381 79.4789 272.8C79.7387 273.215 79.8731 273.698 79.8822 274.249H78.3305C78.3168 273.976 78.2484 273.729 78.1254 273.511C78.0069 273.287 77.8383 273.11 77.6195 272.978C77.4053 272.845 77.1479 272.779 76.8471 272.779C76.5144 272.779 76.2387 272.848 76.0199 272.984C75.8012 273.117 75.6303 273.299 75.5072 273.531C75.3842 273.759 75.2953 274.017 75.2406 274.304C75.1905 274.586 75.1654 274.88 75.1654 275.186V275.425C75.1654 275.73 75.1905 276.026 75.2406 276.313C75.2908 276.601 75.3773 276.858 75.5004 277.086C75.628 277.309 75.8012 277.489 76.0199 277.626C76.2387 277.758 76.5167 277.824 76.8539 277.824ZM85.6424 277.004L87.8436 271.604H89.2723L86.2029 279H85.0818L82.0193 271.604H83.448L85.6424 277.004ZM83.0242 271.604V279H81.3768V271.604H83.0242ZM88.2605 279V271.604H89.9148V279H88.2605ZM93.5627 276.594L96.468 271.604H98.1154V279H96.468V274.003L93.5627 279H91.9152V271.604H93.5627V276.594ZM105.01 274.693V275.992H101.182V274.693H105.01ZM101.661 271.604V279H100.013V271.604H101.661ZM106.2 271.604V279H104.552V271.604H106.2ZM112.979 271.604V272.916H109.752V279H108.104V271.604H112.979ZM115.738 276.594L118.643 271.604H120.29V279H118.643V274.003L115.738 279H114.09V271.604H115.738V276.594ZM125.196 275.466H123.774V274.632H124.923C125.214 274.632 125.447 274.593 125.62 274.516C125.798 274.438 125.923 274.331 125.996 274.194C126.073 274.053 126.112 273.889 126.112 273.702C126.112 273.538 126.073 273.383 125.996 273.237C125.923 273.087 125.798 272.964 125.62 272.868C125.442 272.772 125.201 272.725 124.895 272.725C124.645 272.725 124.419 272.766 124.219 272.848C124.023 272.93 123.868 273.044 123.754 273.189C123.64 273.335 123.583 273.504 123.583 273.695H121.935C121.935 273.235 122.065 272.839 122.325 272.506C122.589 272.173 122.943 271.918 123.385 271.74C123.827 271.562 124.312 271.474 124.841 271.474C125.292 271.474 125.697 271.521 126.057 271.617C126.417 271.708 126.723 271.845 126.973 272.027C127.229 272.205 127.422 272.428 127.554 272.697C127.691 272.962 127.76 273.269 127.76 273.62C127.76 273.871 127.7 274.108 127.582 274.331C127.463 274.554 127.292 274.753 127.069 274.926C126.846 275.094 126.575 275.227 126.256 275.322C125.941 275.418 125.588 275.466 125.196 275.466ZM123.774 274.987H125.196C125.634 274.987 126.021 275.031 126.358 275.117C126.695 275.199 126.978 275.322 127.206 275.486C127.434 275.65 127.605 275.853 127.719 276.095C127.837 276.332 127.896 276.605 127.896 276.915C127.896 277.261 127.821 277.574 127.671 277.852C127.525 278.125 127.315 278.357 127.042 278.549C126.773 278.74 126.452 278.886 126.078 278.986C125.704 279.087 125.292 279.137 124.841 279.137C124.348 279.137 123.87 279.055 123.405 278.891C122.945 278.727 122.564 278.474 122.263 278.132C121.967 277.785 121.819 277.346 121.819 276.812H123.467C123.467 276.999 123.524 277.175 123.638 277.339C123.751 277.503 123.915 277.637 124.13 277.742C124.344 277.842 124.601 277.893 124.902 277.893C125.212 277.893 125.465 277.845 125.661 277.749C125.857 277.649 126.003 277.519 126.098 277.359C126.194 277.195 126.242 277.022 126.242 276.84C126.242 276.594 126.194 276.396 126.098 276.245C126.003 276.095 125.857 275.985 125.661 275.917C125.465 275.844 125.219 275.808 124.923 275.808H123.774V274.987Z" fill="#242424"/>
<rect x="63.5" y="290.5" width="342" height="49" rx="15.5" fill="white"/>
<rect x="63.5" y="290.5" width="342" height="49" rx="15.5" stroke="#EDEDED"/>
<path d="M77.5293 318.717L82.4307 311.047H83.75V321H82.4307V313.323L77.5293 321H76.2168V311.047H77.5293V318.717ZM89.168 320.098C89.4688 320.098 89.7467 320.036 90.002 319.913C90.2572 319.79 90.4668 319.621 90.6309 319.407C90.7949 319.188 90.8883 318.94 90.9111 318.662H92.1143C92.0915 319.1 91.9434 319.507 91.6699 319.886C91.401 320.259 91.0479 320.562 90.6104 320.795C90.1729 321.023 89.6921 321.137 89.168 321.137C88.612 321.137 88.1266 321.039 87.7119 320.843C87.3018 320.647 86.96 320.378 86.6865 320.036C86.4176 319.694 86.2148 319.302 86.0781 318.86C85.946 318.414 85.8799 317.942 85.8799 317.445V317.158C85.8799 316.661 85.946 316.192 86.0781 315.75C86.2148 315.303 86.4176 314.909 86.6865 314.567C86.96 314.226 87.3018 313.957 87.7119 313.761C88.1266 313.565 88.612 313.467 89.168 313.467C89.7467 313.467 90.2526 313.585 90.6855 313.822C91.1185 314.055 91.458 314.374 91.7041 314.779C91.9548 315.18 92.0915 315.636 92.1143 316.146H90.9111C90.8883 315.841 90.8018 315.565 90.6514 315.319C90.5055 315.073 90.305 314.877 90.0498 314.731C89.7992 314.581 89.5052 314.506 89.168 314.506C88.7806 314.506 88.4548 314.583 88.1904 314.738C87.9307 314.889 87.7233 315.094 87.5684 315.354C87.418 315.609 87.3086 315.894 87.2402 316.208C87.1764 316.518 87.1445 316.835 87.1445 317.158V317.445C87.1445 317.769 87.1764 318.088 87.2402 318.402C87.304 318.717 87.4111 319.002 87.5615 319.257C87.7165 319.512 87.9238 319.717 88.1836 319.872C88.4479 320.022 88.776 320.098 89.168 320.098ZM98.0381 319.318L100.554 313.604H101.771L98.4756 321H97.6006L94.3193 313.604H95.5361L98.0381 319.318ZM95.167 313.604V321H93.9023V313.604H95.167ZM100.868 321V313.604H102.14V321H100.868ZM105.794 318.997L109.205 313.604H110.477V321H109.205V315.606L105.794 321H104.536V313.604H105.794V318.997ZM117.774 316.81V317.835H113.864V316.81H117.774ZM114.131 313.604V321H112.866V313.604H114.131ZM118.8 313.604V321H117.528V313.604H118.8ZM125.865 313.604V314.649H122.447V321H121.183V313.604H125.865ZM128.583 318.997L131.994 313.604H133.266V321H131.994V315.606L128.583 321H127.325V313.604H128.583V318.997ZM138.308 317.466H136.947V316.687H138.205C138.556 316.687 138.834 316.643 139.039 316.557C139.244 316.465 139.39 316.34 139.477 316.181C139.563 316.021 139.606 315.834 139.606 315.62C139.606 315.429 139.556 315.249 139.456 315.08C139.36 314.907 139.205 314.768 138.991 314.663C138.777 314.554 138.49 314.499 138.13 314.499C137.838 314.499 137.574 314.551 137.337 314.656C137.1 314.757 136.911 314.896 136.77 315.073C136.633 315.246 136.564 315.442 136.564 315.661H135.3C135.3 315.21 135.427 314.823 135.683 314.499C135.942 314.171 136.286 313.918 136.715 313.74C137.148 313.562 137.619 313.474 138.13 313.474C138.558 313.474 138.941 313.521 139.278 313.617C139.62 313.708 139.91 313.845 140.146 314.027C140.383 314.205 140.563 314.428 140.687 314.697C140.814 314.962 140.878 315.269 140.878 315.62C140.878 315.871 140.819 316.108 140.7 316.331C140.582 316.554 140.411 316.753 140.188 316.926C139.964 317.094 139.693 317.227 139.374 317.322C139.06 317.418 138.704 317.466 138.308 317.466ZM136.947 316.987H138.308C138.75 316.987 139.139 317.031 139.477 317.117C139.814 317.199 140.096 317.322 140.324 317.486C140.552 317.65 140.723 317.853 140.837 318.095C140.955 318.332 141.015 318.605 141.015 318.915C141.015 319.261 140.944 319.574 140.803 319.852C140.666 320.125 140.47 320.357 140.215 320.549C139.96 320.74 139.654 320.886 139.299 320.986C138.948 321.087 138.558 321.137 138.13 321.137C137.651 321.137 137.187 321.055 136.735 320.891C136.284 320.727 135.913 320.474 135.621 320.132C135.329 319.785 135.184 319.346 135.184 318.812H136.448C136.448 319.036 136.519 319.248 136.66 319.448C136.801 319.649 136.997 319.811 137.248 319.934C137.503 320.057 137.797 320.118 138.13 320.118C138.485 320.118 138.782 320.063 139.019 319.954C139.256 319.845 139.433 319.699 139.552 319.517C139.675 319.334 139.736 319.136 139.736 318.922C139.736 318.644 139.682 318.421 139.572 318.252C139.463 318.083 139.294 317.96 139.066 317.883C138.843 317.801 138.556 317.76 138.205 317.76H136.947V316.987Z" fill="#9A9A9A"/>
<rect x="63" y="405" width="343" height="44" rx="14" fill="#3F51B5"/>
<path d="M210.448 422.68C209.84 422.68 209.291 422.787 208.8 423C208.309 423.203 207.893 423.507 207.552 423.912C207.211 424.307 206.949 424.792 206.768 425.368C206.587 425.933 206.496 426.573 206.496 427.288C206.496 428.227 206.64 429.043 206.928 429.736C207.227 430.429 207.664 430.963 208.24 431.336C208.827 431.709 209.557 431.896 210.432 431.896C210.933 431.896 211.408 431.853 211.856 431.768C212.304 431.683 212.741 431.576 213.168 431.448V432.696C212.741 432.856 212.299 432.973 211.84 433.048C211.392 433.123 210.853 433.16 210.224 433.16C209.061 433.16 208.091 432.92 207.312 432.44C206.533 431.96 205.947 431.277 205.552 430.392C205.168 429.507 204.976 428.467 204.976 427.272C204.976 426.408 205.093 425.619 205.328 424.904C205.573 424.189 205.925 423.571 206.384 423.048C206.853 422.525 207.429 422.125 208.112 421.848C208.795 421.56 209.579 421.416 210.464 421.416C211.051 421.416 211.616 421.475 212.16 421.592C212.704 421.709 213.189 421.875 213.616 422.088L213.04 423.304C212.688 423.144 212.293 423 211.856 422.872C211.429 422.744 210.96 422.68 210.448 422.68ZM218.717 424.28C219.763 424.28 220.536 424.509 221.037 424.968C221.539 425.427 221.789 426.157 221.789 427.16V433H220.765L220.493 431.784H220.429C220.184 432.093 219.928 432.355 219.661 432.568C219.405 432.771 219.107 432.92 218.765 433.016C218.435 433.112 218.029 433.16 217.549 433.16C217.037 433.16 216.573 433.069 216.157 432.888C215.752 432.707 215.432 432.429 215.197 432.056C214.963 431.672 214.845 431.192 214.845 430.616C214.845 429.763 215.181 429.107 215.853 428.648C216.525 428.179 217.56 427.923 218.957 427.88L220.413 427.832V427.32C220.413 426.605 220.259 426.109 219.949 425.832C219.64 425.555 219.203 425.416 218.637 425.416C218.189 425.416 217.763 425.485 217.357 425.624C216.952 425.752 216.573 425.901 216.221 426.072L215.789 425.016C216.163 424.813 216.605 424.643 217.117 424.504C217.629 424.355 218.163 424.28 218.717 424.28ZM219.133 428.856C218.067 428.899 217.325 429.069 216.909 429.368C216.504 429.667 216.301 430.088 216.301 430.632C216.301 431.112 216.445 431.464 216.733 431.688C217.032 431.912 217.411 432.024 217.869 432.024C218.595 432.024 219.197 431.827 219.677 431.432C220.157 431.027 220.397 430.408 220.397 429.576V428.808L219.133 428.856ZM230.406 435.976V433H229.718L225.846 428.648V433H224.438V424.424H225.846V428.584L229.51 424.424H231.046L227.382 428.552L230.31 431.816H231.75V435.976H230.406ZM239.872 433H238.448V425.592H235.92C235.814 426.947 235.68 428.104 235.52 429.064C235.36 430.013 235.158 430.787 234.912 431.384C234.667 431.981 234.374 432.419 234.032 432.696C233.691 432.973 233.291 433.112 232.832 433.112C232.694 433.112 232.555 433.101 232.416 433.08C232.288 433.069 232.182 433.043 232.096 433V431.944C232.16 431.965 232.23 431.981 232.304 431.992C232.379 432.003 232.454 432.008 232.528 432.008C232.763 432.008 232.976 431.912 233.168 431.72C233.36 431.528 233.531 431.235 233.68 430.84C233.84 430.445 233.984 429.949 234.112 429.352C234.24 428.744 234.352 428.029 234.448 427.208C234.544 426.387 234.63 425.459 234.704 424.424H239.872V433ZM245.842 424.28C246.888 424.28 247.661 424.509 248.162 424.968C248.664 425.427 248.914 426.157 248.914 427.16V433H247.89L247.618 431.784H247.554C247.309 432.093 247.053 432.355 246.786 432.568C246.53 432.771 246.232 432.92 245.89 433.016C245.56 433.112 245.154 433.16 244.674 433.16C244.162 433.16 243.698 433.069 243.282 432.888C242.877 432.707 242.557 432.429 242.322 432.056C242.088 431.672 241.97 431.192 241.97 430.616C241.97 429.763 242.306 429.107 242.978 428.648C243.65 428.179 244.685 427.923 246.082 427.88L247.538 427.832V427.32C247.538 426.605 247.384 426.109 247.074 425.832C246.765 425.555 246.328 425.416 245.762 425.416C245.314 425.416 244.888 425.485 244.482 425.624C244.077 425.752 243.698 425.901 243.346 426.072L242.914 425.016C243.288 424.813 243.73 424.643 244.242 424.504C244.754 424.355 245.288 424.28 245.842 424.28ZM246.258 428.856C245.192 428.899 244.45 429.069 244.034 429.368C243.629 429.667 243.426 430.088 243.426 430.632C243.426 431.112 243.57 431.464 243.858 431.688C244.157 431.912 244.536 432.024 244.994 432.024C245.72 432.024 246.322 431.827 246.802 431.432C247.282 431.027 247.522 430.408 247.522 429.576V428.808L246.258 428.856ZM263.195 424.424V433H251.563V424.424H252.971V431.816H256.667V424.424H258.075V431.816H261.787V424.424H263.195Z" fill="white"/>
<circle cx="98" cy="187" r="35" fill="#3F51B5"/>
<circle cx="98" cy="187" r="32" fill="white"/>
<mask id="mask0_7306_7667" style="mask-type:alpha" maskUnits="userSpaceOnUse" x="70" y="159" width="56" height="56">
<circle cx="98" cy="187" r="28" fill="white"/>
</mask>
<g mask="url(#mask0_7306_7667)">
<path d="M86.3333 182.917C86.3333 176.473 91.5566 171.25 97.9999 171.25C104.443 171.25 109.667 176.473 109.667 182.917C109.667 189.36 104.443 194.583 97.9999 194.583C91.5566 194.583 86.3333 189.36 86.3333 182.917ZM97.9999 189.917C101.866 189.917 105 186.783 105 182.917C105 179.051 101.866 175.917 97.9999 175.917C94.1339 175.917 90.9999 179.051 90.9999 182.917C90.9999 186.783 94.1339 189.917 97.9999 189.917Z" fill="#3F51B5"/>
<path d="M84.8006 202.384C81.2999 205.885 79.3333 210.633 79.3333 215.583H83.9999C83.9999 211.87 85.4749 208.309 88.1004 205.684C90.7259 203.058 94.2869 201.583 97.9999 201.583C101.713 201.583 105.274 203.058 107.899 205.684C110.525 208.309 112 211.87 112 215.583H116.667C116.667 210.633 114.7 205.885 111.199 202.384C107.699 198.883 102.951 196.917 97.9999 196.917C93.0492 196.917 88.3013 198.883 84.8006 202.384Z" fill="#3F51B5"/>
</g>
<path d="M161.836 186.297C161.721 187.51 161.273 188.458 160.492 189.141C159.711 189.818 158.672 190.156 157.375 190.156C156.469 190.156 155.669 189.943 154.977 189.516C154.289 189.083 153.758 188.471 153.383 187.68C153.008 186.888 152.812 185.969 152.797 184.922V183.859C152.797 182.786 152.987 181.841 153.367 181.023C153.747 180.206 154.292 179.576 155 179.133C155.714 178.69 156.536 178.469 157.469 178.469C158.724 178.469 159.734 178.81 160.5 179.492C161.266 180.174 161.711 181.138 161.836 182.383H159.867C159.773 181.565 159.534 180.977 159.148 180.617C158.768 180.253 158.208 180.07 157.469 180.07C156.609 180.07 155.948 180.385 155.484 181.016C155.026 181.641 154.792 182.56 154.781 183.773V184.781C154.781 186.01 155 186.948 155.438 187.594C155.88 188.24 156.526 188.562 157.375 188.562C158.151 188.562 158.734 188.388 159.125 188.039C159.516 187.69 159.763 187.109 159.867 186.297H161.836ZM166.533 187.281L168.252 181.547H170.275L166.916 191.281C166.4 192.703 165.525 193.414 164.291 193.414C164.015 193.414 163.71 193.367 163.377 193.273V191.805L163.736 191.828C164.215 191.828 164.574 191.74 164.814 191.562C165.059 191.391 165.252 191.099 165.392 190.688L165.666 189.961L162.697 181.547H164.744L166.533 187.281ZM178.925 185.859C178.925 187.167 178.628 188.211 178.034 188.992C177.441 189.768 176.644 190.156 175.644 190.156C174.717 190.156 173.974 189.852 173.417 189.242V193.25H171.519V181.547H173.269L173.347 182.406C173.904 181.729 174.662 181.391 175.62 181.391C176.652 181.391 177.459 181.776 178.042 182.547C178.631 183.312 178.925 184.378 178.925 185.742V185.859ZM177.034 185.695C177.034 184.852 176.865 184.182 176.527 183.688C176.193 183.193 175.714 182.945 175.089 182.945C174.313 182.945 173.756 183.266 173.417 183.906V187.656C173.761 188.312 174.323 188.641 175.105 188.641C175.709 188.641 176.18 188.398 176.519 187.914C176.862 187.424 177.034 186.685 177.034 185.695ZM185.739 190C185.656 189.839 185.583 189.576 185.52 189.211C184.916 189.841 184.177 190.156 183.302 190.156C182.453 190.156 181.76 189.914 181.223 189.43C180.687 188.945 180.419 188.346 180.419 187.633C180.419 186.732 180.752 186.042 181.419 185.562C182.091 185.078 183.049 184.836 184.294 184.836H185.458V184.281C185.458 183.844 185.335 183.495 185.091 183.234C184.846 182.969 184.473 182.836 183.973 182.836C183.541 182.836 183.187 182.945 182.911 183.164C182.635 183.378 182.497 183.651 182.497 183.984H180.598C180.598 183.521 180.752 183.089 181.059 182.688C181.367 182.281 181.783 181.964 182.309 181.734C182.841 181.505 183.432 181.391 184.083 181.391C185.072 181.391 185.861 181.641 186.45 182.141C187.039 182.635 187.341 183.333 187.356 184.234V188.047C187.356 188.807 187.463 189.414 187.677 189.867V190H185.739ZM183.653 188.633C184.028 188.633 184.38 188.542 184.708 188.359C185.041 188.177 185.291 187.932 185.458 187.625V186.031H184.434C183.731 186.031 183.203 186.154 182.848 186.398C182.494 186.643 182.317 186.99 182.317 187.438C182.317 187.802 182.437 188.094 182.677 188.312C182.921 188.526 183.247 188.633 183.653 188.633ZM196.022 183.055H193.28V190H191.381V183.055H188.67V181.547H196.022V183.055ZM203.634 184.945H205.228C205.369 183.867 205.785 183.005 206.478 182.359C207.171 181.714 208.046 181.391 209.103 181.391C210.244 181.391 211.168 181.758 211.877 182.492C212.59 183.227 212.976 184.201 213.033 185.414L213.041 185.859C213.041 186.693 212.879 187.438 212.556 188.094C212.239 188.75 211.78 189.258 211.181 189.617C210.588 189.977 209.9 190.156 209.119 190.156C208.025 190.156 207.127 189.818 206.423 189.141C205.726 188.464 205.322 187.573 205.213 186.469H203.634V190H201.736V181.547H203.634V184.945ZM207.08 185.859C207.08 186.729 207.259 187.411 207.619 187.906C207.978 188.396 208.478 188.641 209.119 188.641C209.759 188.641 210.257 188.391 210.611 187.891C210.965 187.391 211.142 186.659 211.142 185.695C211.142 184.826 210.957 184.146 210.588 183.656C210.223 183.161 209.728 182.914 209.103 182.914C208.483 182.914 207.991 183.161 207.627 183.656C207.262 184.146 207.08 184.88 207.08 185.859ZM217.761 186.656H216.8V190H214.902V181.547H216.8V184.922H217.636L219.972 181.547H222.316L219.261 185.594L222.573 190H220.105L217.761 186.656ZM230.95 181.547V190H229.052V183.078H226.661L226.505 186.023C226.406 187.44 226.132 188.458 225.684 189.078C225.242 189.693 224.562 190 223.645 190H223.059L223.052 188.422L223.442 188.383C223.859 188.326 224.161 188.073 224.348 187.625C224.541 187.172 224.664 186.349 224.716 185.156L224.872 181.547H230.95ZM238.17 190C238.087 189.839 238.014 189.576 237.952 189.211C237.347 189.841 236.608 190.156 235.733 190.156C234.884 190.156 234.191 189.914 233.655 189.43C233.118 188.945 232.85 188.346 232.85 187.633C232.85 186.732 233.183 186.042 233.85 185.562C234.522 185.078 235.48 184.836 236.725 184.836H237.889V184.281C237.889 183.844 237.767 183.495 237.522 183.234C237.277 182.969 236.905 182.836 236.405 182.836C235.972 182.836 235.618 182.945 235.342 183.164C235.066 183.378 234.928 183.651 234.928 183.984H233.03C233.03 183.521 233.183 183.089 233.491 182.688C233.798 182.281 234.215 181.964 234.741 181.734C235.272 181.505 235.863 181.391 236.514 181.391C237.504 181.391 238.293 181.641 238.881 182.141C239.47 182.635 239.772 183.333 239.787 184.234V188.047C239.787 188.807 239.894 189.414 240.108 189.867V190H238.17ZM236.084 188.633C236.459 188.633 236.811 188.542 237.139 188.359C237.472 188.177 237.722 187.932 237.889 187.625V186.031H236.866C236.162 186.031 235.634 186.154 235.28 186.398C234.926 186.643 234.748 186.99 234.748 187.438C234.748 187.802 234.868 188.094 235.108 188.312C235.353 188.526 235.678 188.633 236.084 188.633ZM243.898 181.547V188.484H246.539V181.547H248.438V188.484H251.086V181.547H252.977V190H242V181.547H243.898Z" fill="#3F51B5"/>
<defs>
<filter id="filter0_d_7306_7667" x="27" y="33" width="974" height="471" filterUnits="userSpaceOnUse" color-interpolation-filters="sRGB">
<feFlood flood-opacity="0" result="BackgroundImageFix"/>
<feColorMatrix in="SourceAlpha" type="matrix" values="0 0 0 0 0 0 0 0 0 0 0 0 0 0 0 0 0 0 127 0" result="hardAlpha"/>
<feOffset dy="4"/>
<feGaussianBlur stdDeviation="2"/>
<feComposite in2="hardAlpha" operator="out"/>
<feColorMatrix type="matrix" values="0 0 0 0 0 0 0 0 0 0 0 0 0 0 0 0 0 0 0.06 0"/>
<feBlend mode="normal" in2="BackgroundImageFix" result="effect1_dropShadow_7306_7667"/>
<feBlend mode="normal" in="SourceGraphic" in2="effect1_dropShadow_7306_7667" result="shape"/>
</filter>
</defs>
</svg>
