<svg width="1011" height="238" viewBox="0 0 1011 238" fill="none" xmlns="http://www.w3.org/2000/svg">
<rect x="19" y="39.8618" width="966" height="175.274" rx="11.9505" fill="#FF7F4D"/>
<mask id="mask0_7306_7644" style="mask-type:alpha" maskUnits="userSpaceOnUse" x="19" y="39" width="966" height="177">
<rect x="19" y="39.8618" width="966" height="175.274" rx="11.9505" fill="#EEF4FF"/>
</mask>
<g mask="url(#mask0_7306_7644)">
<g opacity="0.5">
<path d="M886.005 202.484C939.35 120.899 864.438 75.2869 820.313 62.6789C737.1 41.2684 759.49 94.6987 683.702 107.102C607.914 119.505 673.393 149.913 674.873 195.106C676.353 240.298 586.349 195.749 591.079 278.783C595.809 361.817 743.105 402.319 711.228 289.415C679.35 176.511 819.324 304.465 886.005 202.484Z" stroke="#F4F4F4" stroke-width="1.99175"/>
<path d="M854.044 204.48C895.104 141.621 837.486 106.505 803.544 96.8041C739.535 80.333 756.745 121.485 698.439 131.059C640.132 140.633 690.497 164.039 691.623 198.851C692.75 233.663 623.523 199.37 627.14 263.33C630.757 327.291 744.06 358.452 719.567 271.489C695.073 184.526 802.72 283.054 854.044 204.48Z" stroke="#F4F4F4" stroke-width="1.99175"/>
<path d="M915.62 200.549C980.388 101.429 889.476 46.0416 835.924 30.7375C734.93 4.75054 762.092 69.6493 670.102 84.7359C578.112 99.8224 657.578 136.744 659.363 191.641C661.147 246.538 551.918 192.446 557.637 293.31C563.357 394.174 742.125 443.336 703.464 306.194C664.802 169.052 834.66 324.448 915.62 200.549Z" stroke="#F4F4F4" stroke-width="1.99175"/>
<path d="M940.471 199.03C1014.78 85.4197 910.408 21.8896 848.935 4.32577C733.006 -25.5019 764.205 48.9093 658.624 66.1726C553.043 83.4359 644.267 125.791 646.335 188.728C648.402 251.664 523.01 189.613 529.61 305.248C536.21 420.883 741.418 477.307 696.994 320.07C652.57 162.833 847.588 341.042 940.471 199.03Z" stroke="#F4F4F4" stroke-width="1.99175"/>
<path d="M976.024 196.648C1064.07 61.8646 940.51 -13.4352 867.724 -34.2371C730.459 -69.5584 767.368 18.6823 642.334 39.2084C517.3 59.7345 625.305 109.926 627.723 184.571C630.141 259.216 481.685 185.68 489.445 322.827C497.205 459.974 740.178 526.796 687.649 340.326C635.119 153.855 865.967 365.127 976.024 196.648Z" stroke="#F4F4F4" stroke-width="1.99175"/>
<path d="M1017.51 193.821C1121.61 34.225 975.674 -54.8382 889.69 -79.4203C727.534 -121.152 771.09 -16.7212 623.353 7.64733C475.616 32.0159 603.193 91.3671 606.007 179.724C608.821 268.082 433.465 181.121 442.555 343.459C451.646 505.798 738.676 584.758 676.72 364.06C614.764 143.361 887.386 393.316 1017.51 193.821Z" stroke="#F4F4F4" stroke-width="1.99175"/>
</g>
<mask id="mask1_7306_7644" style="mask-type:alpha" maskUnits="userSpaceOnUse" x="799" y="37" width="187" height="179">
<path d="M799 46.7163C799 41.3501 803.35 37 808.716 37H975.513C980.879 37 985.229 41.3501 985.229 46.7163V205.416C985.229 210.782 980.879 215.132 975.513 215.132H808.716C803.35 215.132 799 210.782 799 205.416V46.7163Z" fill="#FF7F4D"/>
</mask>
<g mask="url(#mask1_7306_7644)">
<path d="M880.566 229.425C883.217 226.083 884.679 223.301 885.459 221.093L885.989 221.422C888.786 208.906 883.409 196.733 883.409 196.733L865.614 191.749C865.614 191.749 862.872 200.331 860.63 205.616C857.142 210.317 851.494 211.813 851.494 211.813L848.045 234.573C848.042 234.576 872.926 239.061 880.566 229.425Z" fill="#E54728"/>
<path d="M906.23 173.024C917.679 179.681 929.112 183.035 942.331 182.207L979.209 163.763C983.904 150.526 987.538 136.64 986.88 122.611C986.222 108.582 980.79 94.2934 969.951 85.3641C964.836 81.1508 958.734 78.2627 953.655 74.0037C946.471 67.9777 941.454 59.3104 933.201 54.8564C920.11 47.7915 901.779 50.7923 895.506 64.6235C885.986 63.6273 874.33 73.0349 882.23 98.8815C884.393 105.962 887.966 115.378 886.793 122.687C883.409 143.805 890.8 164.055 906.23 173.024Z" fill="#2E0031"/>
<path d="M989.852 168.954C985.523 137.816 959.81 132.405 959.81 132.405L906.98 134.273C906.98 134.273 893.774 134.842 884.055 146.891C874.337 158.94 869.478 163.799 869.103 175.014C868.728 186.228 875.458 202.301 878.447 207.907C881.438 213.512 879.193 228.465 879.193 228.465C879.193 228.465 919.404 266.966 979.71 258.491C977.964 253.333 976.124 247.865 975.612 243.429C988.715 223.612 993.456 194.901 989.852 168.954Z" fill="#FF572F"/>
<path d="M877.825 226.828C877.721 227.31 877.968 227.815 878.465 227.952C878.921 228.077 879.485 227.8 879.589 227.313C880.512 223.048 880.737 218.642 880.244 214.307C879.744 209.902 878.562 205.615 876.716 201.585C875.698 199.364 874.471 197.244 873.054 195.251C872.768 194.849 872.256 194.657 871.805 194.922C871.409 195.154 871.189 195.769 871.476 196.171C873.916 199.599 875.777 203.41 876.987 207.437C878.193 211.443 878.763 215.62 878.659 219.803C878.602 222.17 878.324 224.516 877.825 226.828Z" fill="#180205"/>
<path d="M944.233 94.2783C944.732 84.4351 936.135 85.806 933.89 90.4154C933.89 90.4154 923.922 90.7901 917.817 81.5683C911.711 72.3496 901.95 71.725 897.841 77.0838C897.841 77.0838 891.653 75.9627 890.779 85.3064C889.907 94.65 893.664 124.055 912.595 123.683C912.595 123.683 912.461 130.91 911.961 133.402L906.977 134.273C906.977 134.273 910.852 146.157 929.53 146.858C952.83 147.729 959.807 132.405 959.807 132.405L946.1 129.167C946.1 129.167 936.882 116.957 935.136 102.754C935.136 102.751 943.733 104.122 944.233 94.2783Z" fill="#FFBEAE"/>
<path d="M947.764 144.444C951.273 142.881 954.527 140.773 957.403 138.223C957.772 137.894 957.738 137.263 957.403 136.931C957.037 136.565 956.48 136.602 956.111 136.931C951.237 141.251 945.18 144.154 938.786 145.355C932.354 146.561 925.664 145.875 919.559 143.557C916.144 142.259 912.899 140.422 910.045 138.143C909.661 137.836 909.128 137.766 908.753 138.143C908.433 138.463 908.366 139.127 908.753 139.435C914.203 143.789 920.766 146.558 927.681 147.463C934.508 148.355 941.485 147.24 947.764 144.444Z" fill="#180205"/>
<path d="M945.487 210.023C946.13 207.617 946.776 205.21 947.419 202.803C948.442 198.983 949.463 195.165 950.487 191.345C950.721 190.468 950.956 189.593 951.19 188.716C951.495 187.58 949.731 187.092 949.427 188.229C948.784 190.635 948.138 193.042 947.495 195.449C946.471 199.269 945.451 203.086 944.427 206.907C944.193 207.784 943.958 208.658 943.723 209.536C943.419 210.675 945.183 211.16 945.487 210.023Z" fill="#180205"/>
<path d="M958.435 179.505L919.936 136.893C919.936 136.893 902.242 138.886 888.384 142.405C874.525 145.923 861.885 152.595 861.885 152.595C861.885 152.595 854.896 145.865 842.686 144.254C830.475 142.642 813.531 141.131 813.531 141.131L808.379 147.376L853.9 169.975L956.382 189.293L958.435 179.505Z" fill="#FCF4E6"/>
<path d="M900.5 203.427L958.435 191.753L919.449 145.095L869.084 155.956H859.006L805.555 146.896L842.561 191.753L885.173 201.559L900.5 203.427Z" fill="#0E6AC3"/>
<path d="M869.084 155.956H859.006L885.173 201.559L900.5 203.426L869.084 155.956Z" fill="#1058C1"/>
<path d="M889.657 196.735L897.63 203.425C897.63 203.425 906.352 199.261 910.09 195.114C910.09 195.114 903.61 190.593 902.614 179.629C901.618 168.665 896.259 169.411 893.767 170.657C891.275 171.903 891.899 175.641 888.408 176.388C884.92 177.134 871.713 168.165 865.855 170.532C859.999 172.899 861.37 179.751 865.108 184.114C868.849 188.473 877.572 195.029 889.657 196.735Z" fill="#FFBEAE"/>
<path d="M964.044 250.896C979.015 248.757 987.642 222.746 989.827 197.841C991.079 183.571 944.607 209.78 944.607 209.78C938.252 207.912 907.976 191.751 907.976 191.751C901.246 198.392 894.894 202.678 894.894 202.678C902.367 213.893 940.494 254.262 964.044 250.896Z" fill="#FF572F"/>
<path d="M947.879 210.51C947.784 210.47 948.049 210.581 947.879 210.51V210.51Z" fill="#180205"/>
<path d="M907.513 192.54C907.72 192.646 907.928 192.753 908.135 192.862C908.296 192.707 908.461 192.555 908.622 192.396C908.25 192.445 907.882 192.491 907.513 192.54Z" fill="#180205"/>
<path d="M908.135 192.863C907.927 192.757 907.72 192.65 907.513 192.54C907.882 192.492 908.25 192.446 908.622 192.397C908.46 192.556 908.296 192.705 908.135 192.863C909.143 193.387 910.154 193.914 911.166 194.435C914.139 195.974 917.119 197.503 920.101 199.023C923.858 200.937 927.62 202.838 931.398 204.714C934.968 206.487 938.551 208.245 942.164 209.93C944.586 211.06 947.026 212.245 949.558 213.113C949.725 213.171 949.896 213.226 950.07 213.278C951.2 213.613 951.681 211.849 950.557 211.514C949.649 211.246 948.772 210.874 947.898 210.512C947.891 210.509 947.888 210.509 947.882 210.506C948.05 210.576 947.788 210.466 947.882 210.506C947.876 210.503 947.876 210.503 947.87 210.5C947.806 210.472 947.739 210.445 947.675 210.417C947.511 210.347 947.346 210.277 947.185 210.207C946.865 210.07 946.548 209.93 946.231 209.787C945.512 209.467 944.799 209.141 944.086 208.812C940.58 207.194 937.11 205.5 933.649 203.788C929.844 201.908 926.054 199.998 922.27 198.073C919.157 196.489 916.046 194.895 912.942 193.29C911.464 192.525 909.999 191.724 908.506 190.99C908.485 190.981 908.464 190.968 908.445 190.956C908.08 190.767 907.638 190.804 907.336 191.099C903.592 194.789 899.571 198.228 895.297 201.281C895.013 201.485 894.727 201.686 894.437 201.884C894.047 202.149 893.822 202.7 894.108 203.133C895.726 205.555 897.597 207.819 899.485 210.033C902.2 213.214 905.048 216.282 907.982 219.261C911.461 222.798 915.065 226.213 918.794 229.482C922.724 232.928 926.797 236.215 931.044 239.259C935.081 242.15 939.288 244.831 943.73 247.058C947.648 249.023 951.794 250.692 956.117 251.499C960.071 252.237 964.257 252.301 968.017 250.704C972.477 248.812 975.864 245.029 978.457 241.047C981.753 235.984 984.014 230.25 985.775 224.495C987.801 217.875 989.144 211.057 990.046 204.196C990.268 202.502 990.46 200.802 990.625 199.099C990.674 198.609 990.171 198.186 989.711 198.186C989.178 198.186 988.846 198.606 988.797 199.099C988.136 205.915 987.021 212.693 985.321 219.328C983.795 225.29 981.817 231.207 978.914 236.654C976.657 240.892 973.698 245.144 969.683 247.749C967.901 248.907 966.116 249.647 963.992 249.979C963.947 249.985 963.758 250.013 963.742 250.016C963.764 250.013 963.782 250.01 963.803 250.01C963.752 250.016 963.739 250.019 963.742 250.016C963.669 250.025 963.593 250.034 963.52 250.043C963.289 250.071 963.057 250.092 962.825 250.11C962.372 250.147 961.915 250.165 961.458 250.171C960.531 250.183 959.605 250.138 958.685 250.043C958.466 250.022 958.25 249.994 958.033 249.967C957.957 249.958 957.939 249.955 957.936 249.955C957.939 249.955 957.933 249.955 957.936 249.955C957.933 249.955 957.914 249.952 957.838 249.94C957.707 249.921 957.573 249.9 957.442 249.879C956.967 249.803 956.492 249.717 956.02 249.62C955.011 249.413 954.015 249.157 953.028 248.864C950.971 248.255 948.955 247.478 947.078 246.634C942.722 244.672 938.597 242.22 934.642 239.545C930.435 236.7 926.417 233.583 922.538 230.305C918.733 227.088 915.062 223.712 911.516 220.215C908.424 217.165 905.42 214.021 902.541 210.768C901.368 209.442 900.217 208.099 899.096 206.728C898.617 206.143 898.145 205.552 897.682 204.955C897.658 204.924 897.584 204.827 897.569 204.809C897.588 204.833 897.606 204.857 897.627 204.882C897.575 204.812 897.563 204.796 897.569 204.809C897.542 204.775 897.517 204.742 897.49 204.705C897.383 204.565 897.277 204.428 897.173 204.288C896.987 204.041 896.801 203.791 896.619 203.538C896.463 203.325 896.317 203.106 896.165 202.889C895.897 203.078 895.626 203.267 895.354 203.45C895.464 203.033 895.574 202.615 895.683 202.201C895.839 202.435 896.006 202.661 896.165 202.889C898.983 200.921 901.658 198.716 904.238 196.455C905.566 195.304 906.864 194.097 908.135 192.863Z" fill="#180205"/>
<path d="M897.628 204.897C897.609 204.872 897.591 204.848 897.569 204.823C897.56 204.814 897.572 204.829 897.628 204.897Z" fill="#180205"/>
<path d="M895.354 203.468C895.625 203.285 895.897 203.096 896.165 202.907C896.003 202.679 895.839 202.45 895.683 202.219C895.571 202.633 895.461 203.05 895.354 203.468Z" fill="#180205"/>
<path d="M851.408 174.257C849.416 169.511 833.76 159.972 824.995 170.452C816.227 180.932 828.733 195.111 828.733 195.111L832.221 204.918C839.697 207.659 850.662 201.429 850.662 201.429L848.17 197.941C850.662 189.968 847.423 186.696 847.423 186.696C851.655 184.177 853.4 179.004 851.408 174.257Z" fill="#FFBEAE"/>
<path d="M860.627 205.619C860.627 205.619 853.138 202.225 850.908 199.127C850.908 199.127 844.179 202.926 830.475 203.426C830.475 203.426 835.21 228.096 848.045 234.576L860.627 205.619Z" fill="#E54728"/>
<path d="M935.858 94.7778C935.937 92.6575 938.049 90.9636 940.123 91.2256C940.37 91.2561 940.58 90.9941 940.58 90.7686C940.58 90.4975 940.37 90.3421 940.123 90.3116C937.54 89.9857 935.042 92.2096 934.944 94.7778C934.923 95.3658 935.837 95.3658 935.858 94.7778Z" fill="#180205"/>
<path d="M914.712 97.4643C915.592 97.3028 916.113 96.1177 915.875 94.823C915.635 93.5282 914.727 92.6081 913.846 92.7696C912.966 92.9311 912.445 94.1162 912.683 95.4109C912.92 96.7088 913.831 97.6258 914.712 97.4643Z" fill="#180205"/>
<path d="M913.995 97.0207C914.338 97.0207 914.617 96.7424 914.617 96.3992C914.617 96.056 914.338 95.7777 913.995 95.7777C913.652 95.7777 913.374 96.056 913.374 96.3992C913.374 96.7424 913.652 97.0207 913.995 97.0207Z" fill="white"/>
<path d="M901.021 101.009C901.859 100.689 902.156 99.4314 901.686 98.2008C901.215 96.9702 900.155 96.2322 899.317 96.5525C898.48 96.8727 898.182 98.1299 898.652 99.3605C899.123 100.591 900.183 101.329 901.021 101.009Z" fill="#180205"/>
<path d="M900.225 100.685C900.563 100.621 900.785 100.299 900.724 99.9604C900.661 99.6222 900.338 99.3998 899.999 99.4607C899.661 99.5217 899.439 99.8476 899.5 100.186C899.561 100.524 899.887 100.749 900.225 100.685Z" fill="white"/>
<path d="M911.138 89.0363C911.5 88.3874 912.094 87.8908 912.813 87.6867C913.599 87.4612 914.434 87.6166 915.117 88.0584C915.61 88.3783 916.07 87.5892 915.577 87.2693C914.699 86.6996 913.578 86.5168 912.57 86.8063C911.631 87.0744 910.821 87.7233 910.349 88.5763C910.062 89.0911 910.851 89.5511 911.138 89.0363Z" fill="#180205"/>
<path d="M895.903 93.827C896.266 93.178 896.86 92.6815 897.579 92.4774C898.365 92.2519 899.199 92.4073 899.882 92.849C900.375 93.1689 900.835 92.3799 900.342 92.06C899.465 91.4903 898.343 91.3075 897.335 91.5969C896.397 91.865 895.586 92.5139 895.114 93.3669C894.828 93.8787 895.617 94.3418 895.903 93.827Z" fill="#180205"/>
<path d="M905.161 104.832C905.247 104.659 905.323 104.482 905.399 104.308C905.228 104.268 905.057 104.219 904.887 104.161C904.978 104.387 905.07 104.61 905.161 104.832Z" fill="#180205"/>
<path d="M904.643 105.042C905.6 105.368 906.602 105.432 907.595 105.27C908.174 105.176 907.927 104.295 907.351 104.39C906.693 104.496 906.035 104.46 905.396 104.308C905.319 104.484 905.243 104.661 905.158 104.832C905.066 104.609 904.975 104.384 904.884 104.161C905.051 104.219 905.222 104.268 905.396 104.308C906.178 102.513 906.55 100.56 906.437 98.5984C906.404 98.0135 905.49 98.0104 905.523 98.5984C905.636 100.591 905.249 102.58 904.366 104.372C904.235 104.646 904.351 104.944 904.643 105.042Z" fill="#180205"/>
<path d="M914.672 108.287C915.047 107.839 914.404 107.19 914.026 107.641C912.576 109.365 910.187 110.158 908 109.588C907.43 109.439 907.187 110.322 907.756 110.468C910.236 111.114 913.015 110.255 914.672 108.287Z" fill="#180205"/>
<path d="M926.581 117.954C921.307 123.438 912.594 123.684 912.594 123.684L912.347 129.741C924.92 127.797 926.581 117.954 926.581 117.954Z" fill="#180205"/>
<path d="M842.872 186.871C840.666 187.422 838.342 187.377 836.148 186.789C835.012 186.484 834.525 188.248 835.664 188.553C839.786 189.659 844.395 189.037 847.923 186.569C851.101 184.348 853.203 180.814 853.084 176.869C853.017 174.657 852.273 172.552 850.878 170.831C850.567 170.447 849.909 170.508 849.586 170.831C849.209 171.209 849.276 171.739 849.586 172.123C851.612 174.621 851.756 178.389 850.321 181.198C848.84 184.099 845.992 186.088 842.872 186.871Z" fill="#180205"/>
</g>
</g>
<path d="M62.492 91.566C61.972 92.7447 61.4173 93.7673 60.828 94.634C60.256 95.4833 59.5193 96.1333 58.618 96.584C57.7167 97.0347 56.538 97.26 55.082 97.26C54.6313 97.26 54.1373 97.2253 53.6 97.156C53.0627 97.0867 52.5687 96.9913 52.118 96.87V93.49C52.534 93.6633 52.9933 93.7847 53.496 93.854C53.9987 93.9233 54.4667 93.958 54.9 93.958C55.472 93.958 55.9313 93.8627 56.278 93.672C56.642 93.4813 56.928 93.2213 57.136 92.892C57.3613 92.5453 57.5433 92.1727 57.682 91.774L51.26 78.436H55.42L58.878 86.47C58.9647 86.6433 59.0687 86.8687 59.19 87.146C59.3113 87.4233 59.4327 87.7093 59.554 88.004C59.6753 88.2987 59.7707 88.5587 59.84 88.784H59.97C60.0393 88.576 60.126 88.3247 60.23 88.03C60.3513 87.718 60.4727 87.406 60.594 87.094C60.7327 86.7647 60.854 86.4787 60.958 86.236L64.182 78.436H68.238L62.492 91.566ZM75.4422 82.544C76.4649 82.544 77.4182 82.6827 78.3022 82.96C79.2036 83.22 79.9229 83.6273 80.4602 84.182C81.0149 84.7367 81.2922 85.4473 81.2922 86.314C81.2922 87.1633 81.0322 87.8393 80.5122 88.342C80.0096 88.8447 79.3249 89.2087 78.4582 89.434V89.564C79.0649 89.7027 79.6109 89.902 80.0962 90.162C80.5816 90.4047 80.9629 90.7427 81.2402 91.176C81.5349 91.592 81.6822 92.1553 81.6822 92.866C81.6822 93.646 81.4309 94.374 80.9282 95.05C80.4429 95.7087 79.6802 96.246 78.6402 96.662C77.6176 97.0607 76.3002 97.26 74.6882 97.26C73.9256 97.26 73.2062 97.2253 72.5302 97.156C71.8542 97.0867 71.2389 96.9913 70.6842 96.87C70.1296 96.7313 69.6442 96.5667 69.2282 96.376V93.178C69.8176 93.4553 70.5369 93.7067 71.3862 93.932C72.2529 94.1573 73.1716 94.27 74.1422 94.27C74.8529 94.27 75.4856 94.218 76.0402 94.114C76.6122 94.01 77.0629 93.8367 77.3922 93.594C77.7389 93.3513 77.9122 93.0307 77.9122 92.632C77.9122 92.2507 77.7649 91.9387 77.4702 91.696C77.1756 91.436 76.7336 91.2453 76.1442 91.124C75.5549 91.0027 74.8009 90.942 73.8822 90.942H72.3742V88.264H73.8042C75.0869 88.264 76.0749 88.16 76.7682 87.952C77.4789 87.744 77.8342 87.354 77.8342 86.782C77.8342 86.3313 77.6089 85.9933 77.1582 85.768C76.7076 85.5253 75.9709 85.404 74.9482 85.404C74.2722 85.404 73.5356 85.482 72.7382 85.638C71.9409 85.794 71.1869 86.0193 70.4762 86.314L69.3322 83.61C70.1469 83.298 71.0396 83.0467 72.0102 82.856C72.9809 82.648 74.1249 82.544 75.4422 82.544ZM88.4341 88.42C88.4341 88.7147 88.4168 89.0787 88.3821 89.512C88.3648 89.9453 88.3388 90.3873 88.3041 90.838C88.2868 91.2887 88.2608 91.6873 88.2261 92.034C88.1914 92.3807 88.1654 92.6233 88.1481 92.762L94.7001 82.804H99.3541V97H95.6101V91.332C95.6101 90.864 95.6274 90.3527 95.6621 89.798C95.6968 89.226 95.7314 88.6973 95.7661 88.212C95.8181 87.7093 95.8528 87.328 95.8701 87.068L89.3441 97H84.6901V82.804H88.4341V88.42ZM107.277 82.804V88.264H112.685V82.804H116.559V97H112.685V91.15H107.277V97H103.403V82.804H107.277ZM130.42 82.804V85.716H124.492V97H120.618V82.804H130.42ZM136.778 88.42C136.778 88.7147 136.761 89.0787 136.726 89.512C136.709 89.9453 136.683 90.3873 136.648 90.838C136.631 91.2887 136.605 91.6873 136.57 92.034C136.535 92.3807 136.509 92.6233 136.492 92.762L143.044 82.804H147.698V97H143.954V91.332C143.954 90.864 143.971 90.3527 144.006 89.798C144.041 89.226 144.075 88.6973 144.11 88.212C144.162 87.7093 144.197 87.328 144.214 87.068L137.688 97H133.034V82.804H136.778V88.42ZM156.921 82.544C157.943 82.544 158.897 82.6827 159.781 82.96C160.682 83.22 161.401 83.6273 161.939 84.182C162.493 84.7367 162.771 85.4473 162.771 86.314C162.771 87.1633 162.511 87.8393 161.991 88.342C161.488 88.8447 160.803 89.2087 159.937 89.434V89.564C160.543 89.7027 161.089 89.902 161.575 90.162C162.06 90.4047 162.441 90.7427 162.719 91.176C163.013 91.592 163.161 92.1553 163.161 92.866C163.161 93.646 162.909 94.374 162.407 95.05C161.921 95.7087 161.159 96.246 160.119 96.662C159.096 97.0607 157.779 97.26 156.167 97.26C155.404 97.26 154.685 97.2253 154.009 97.156C153.333 97.0867 152.717 96.9913 152.163 96.87C151.608 96.7313 151.123 96.5667 150.707 96.376V93.178C151.296 93.4553 152.015 93.7067 152.865 93.932C153.731 94.1573 154.65 94.27 155.621 94.27C156.331 94.27 156.964 94.218 157.519 94.114C158.091 94.01 158.541 93.8367 158.871 93.594C159.217 93.3513 159.391 93.0307 159.391 92.632C159.391 92.2507 159.243 91.9387 158.949 91.696C158.654 91.436 158.212 91.2453 157.623 91.124C157.033 91.0027 156.279 90.942 155.361 90.942H153.853V88.264H155.283C156.565 88.264 157.553 88.16 158.247 87.952C158.957 87.744 159.313 87.354 159.313 86.782C159.313 86.3313 159.087 85.9933 158.637 85.768C158.186 85.5253 157.449 85.404 156.427 85.404C155.751 85.404 155.014 85.482 154.217 85.638C153.419 85.794 152.665 86.0193 151.955 86.314L150.811 83.61C151.625 83.298 152.518 83.0467 153.489 82.856C154.459 82.648 155.603 82.544 156.921 82.544ZM177.603 97.26C176.199 97.26 175.003 97.0087 174.015 96.506C173.027 95.986 172.273 95.1887 171.753 94.114C171.233 93.0393 170.973 91.6613 170.973 89.98C170.973 88.2467 171.267 86.834 171.857 85.742C172.446 84.65 173.261 83.844 174.301 83.324C175.358 82.804 176.571 82.544 177.941 82.544C178.911 82.544 179.752 82.6393 180.463 82.83C181.191 83.0207 181.823 83.246 182.361 83.506L181.217 86.496C180.61 86.2533 180.038 86.054 179.501 85.898C178.981 85.742 178.461 85.664 177.941 85.664C177.265 85.664 176.701 85.8287 176.251 86.158C175.8 86.47 175.462 86.9467 175.237 87.588C175.029 88.212 174.925 89.0007 174.925 89.954C174.925 90.89 175.037 91.67 175.263 92.294C175.505 92.9007 175.852 93.36 176.303 93.672C176.753 93.9667 177.299 94.114 177.941 94.114C178.755 94.114 179.475 94.01 180.099 93.802C180.723 93.5767 181.329 93.2733 181.919 92.892V96.194C181.329 96.5753 180.705 96.844 180.047 97C179.405 97.1733 178.591 97.26 177.603 97.26ZM191.036 82.544C192.354 82.544 193.48 82.7953 194.416 83.298C195.37 83.8007 196.106 84.5287 196.626 85.482C197.146 86.4353 197.406 87.6053 197.406 88.992V90.864H188.254C188.289 91.956 188.61 92.814 189.216 93.438C189.84 94.062 190.698 94.374 191.79 94.374C192.709 94.374 193.541 94.2873 194.286 94.114C195.032 93.9233 195.803 93.6373 196.6 93.256V96.246C195.907 96.5927 195.17 96.844 194.39 97C193.628 97.1733 192.7 97.26 191.608 97.26C190.187 97.26 188.93 97 187.838 96.48C186.746 95.9427 185.888 95.1367 185.264 94.062C184.64 92.9873 184.328 91.6353 184.328 90.006C184.328 88.342 184.606 86.964 185.16 85.872C185.732 84.7627 186.521 83.9307 187.526 83.376C188.532 82.8213 189.702 82.544 191.036 82.544ZM191.062 85.3C190.317 85.3 189.693 85.5427 189.19 86.028C188.705 86.5133 188.419 87.2673 188.332 88.29H193.766C193.766 87.718 193.662 87.2067 193.454 86.756C193.264 86.3053 192.969 85.95 192.57 85.69C192.172 85.43 191.669 85.3 191.062 85.3ZM213.132 86.522C213.132 87.2847 212.889 87.9347 212.404 88.472C211.936 89.0093 211.234 89.356 210.298 89.512V89.616C211.286 89.7373 212.074 90.0753 212.664 90.63C213.27 91.1847 213.574 91.8953 213.574 92.762C213.574 93.3687 213.452 93.932 213.21 94.452C212.984 94.972 212.62 95.4227 212.118 95.804C211.615 96.1853 210.965 96.48 210.168 96.688C209.388 96.896 208.434 97 207.308 97H200.548V82.804H207.308C208.417 82.804 209.405 82.9253 210.272 83.168C211.156 83.3933 211.849 83.7747 212.352 84.312C212.872 84.8493 213.132 85.586 213.132 86.522ZM209.57 92.554C209.57 91.9993 209.353 91.6007 208.92 91.358C208.486 91.098 207.836 90.968 206.97 90.968H204.422V94.322H207.048C207.776 94.322 208.374 94.192 208.842 93.932C209.327 93.6547 209.57 93.1953 209.57 92.554ZM209.206 86.834C209.206 86.3833 209.032 86.054 208.686 85.846C208.339 85.638 207.828 85.534 207.152 85.534H204.422V88.342H206.71C207.524 88.342 208.14 88.2293 208.556 88.004C208.989 87.7613 209.206 87.3713 209.206 86.834ZM226.701 82.804V85.716H220.773V97H216.899V82.804H226.701ZM235.139 82.518C237.046 82.518 238.502 82.934 239.507 83.766C240.53 84.5807 241.041 85.8373 241.041 87.536V97H238.337L237.583 95.076H237.479C237.08 95.5787 236.664 95.9947 236.231 96.324C235.815 96.6533 235.33 96.8873 234.775 97.026C234.238 97.182 233.57 97.26 232.773 97.26C231.941 97.26 231.187 97.104 230.511 96.792C229.852 96.4627 229.332 95.9687 228.951 95.31C228.57 94.634 228.379 93.7847 228.379 92.762C228.379 91.254 228.908 90.1447 229.965 89.434C231.022 88.706 232.608 88.3073 234.723 88.238L237.193 88.16V87.536C237.193 86.7907 236.994 86.2447 236.595 85.898C236.214 85.5513 235.676 85.378 234.983 85.378C234.29 85.378 233.614 85.482 232.955 85.69C232.296 85.8807 231.638 86.1233 230.979 86.418L229.705 83.792C230.468 83.3933 231.308 83.0813 232.227 82.856C233.163 82.6307 234.134 82.518 235.139 82.518ZM235.685 90.474C234.437 90.5087 233.57 90.734 233.085 91.15C232.6 91.566 232.357 92.112 232.357 92.788C232.357 93.3773 232.53 93.802 232.877 94.062C233.224 94.3047 233.674 94.426 234.229 94.426C235.061 94.426 235.763 94.1833 236.335 93.698C236.907 93.1953 237.193 92.4933 237.193 91.592V90.422L235.685 90.474ZM248.881 82.804V88.264H254.289V82.804H258.163V97H254.289V91.15H248.881V97H245.007V82.804H248.881ZM267.025 88.498C267.025 86.4007 267.285 84.624 267.805 83.168C268.325 81.6947 269.149 80.5247 270.275 79.658C271.402 78.774 272.875 78.176 274.695 77.864C275.614 77.708 276.541 77.578 277.477 77.474C278.431 77.3527 279.41 77.2313 280.415 77.11L280.857 80.49C280.424 80.542 279.947 80.6027 279.427 80.672C278.907 80.724 278.379 80.7847 277.841 80.854C277.321 80.906 276.819 80.9667 276.333 81.036C275.848 81.1053 275.406 81.166 275.007 81.218C274.366 81.322 273.803 81.4693 273.317 81.66C272.832 81.8333 272.425 82.0847 272.095 82.414C271.766 82.7433 271.506 83.194 271.315 83.766C271.142 84.3207 271.029 85.04 270.977 85.924H271.159C271.367 85.5947 271.653 85.2653 272.017 84.936C272.399 84.6067 272.867 84.3293 273.421 84.104C273.976 83.8787 274.609 83.766 275.319 83.766C276.446 83.766 277.425 84 278.257 84.468C279.089 84.936 279.731 85.6293 280.181 86.548C280.632 87.4667 280.857 88.6107 280.857 89.98C280.857 91.592 280.563 92.9353 279.973 94.01C279.384 95.0847 278.569 95.8993 277.529 96.454C276.489 96.9913 275.285 97.26 273.915 97.26C272.875 97.26 271.931 97.0693 271.081 96.688C270.232 96.3067 269.504 95.7433 268.897 94.998C268.291 94.2527 267.823 93.334 267.493 92.242C267.181 91.15 267.025 89.902 267.025 88.498ZM274.149 94.114C274.704 94.114 275.181 93.9927 275.579 93.75C275.995 93.5073 276.316 93.1087 276.541 92.554C276.784 91.9993 276.905 91.254 276.905 90.318C276.905 89.1913 276.715 88.2987 276.333 87.64C275.969 86.964 275.328 86.626 274.409 86.626C273.855 86.626 273.335 86.7647 272.849 87.042C272.381 87.302 271.983 87.6053 271.653 87.952C271.324 88.2813 271.099 88.5673 270.977 88.81C270.977 89.486 271.029 90.1447 271.133 90.786C271.237 91.41 271.411 91.9733 271.653 92.476C271.896 92.9787 272.217 93.3773 272.615 93.672C273.031 93.9667 273.543 94.114 274.149 94.114ZM282.029 82.804H286.267L288.945 90.786C289.032 91.046 289.101 91.306 289.153 91.566C289.223 91.826 289.275 92.0947 289.309 92.372C289.361 92.6493 289.396 92.944 289.413 93.256H289.491C289.543 92.8053 289.613 92.3807 289.699 91.982C289.803 91.566 289.916 91.1673 290.037 90.786L292.663 82.804H296.823L290.817 98.82C290.453 99.7907 289.977 100.605 289.387 101.264C288.815 101.923 288.148 102.417 287.385 102.746C286.623 103.075 285.791 103.24 284.889 103.24C284.456 103.24 284.075 103.214 283.745 103.162C283.433 103.127 283.156 103.084 282.913 103.032V99.964C283.104 99.9987 283.329 100.033 283.589 100.068C283.867 100.103 284.153 100.12 284.447 100.12C284.985 100.12 285.444 100.007 285.825 99.782C286.224 99.5567 286.553 99.2447 286.813 98.846C287.073 98.4647 287.281 98.0487 287.437 97.598L287.671 96.896L282.029 82.804ZM311.066 97H307.192V85.716H303.63C303.457 87.796 303.24 89.5727 302.98 91.046C302.738 92.502 302.426 93.6893 302.044 94.608C301.68 95.5267 301.212 96.2027 300.64 96.636C300.068 97.052 299.366 97.26 298.534 97.26C298.084 97.26 297.676 97.2253 297.312 97.156C296.948 97.0867 296.619 96.9827 296.324 96.844V93.75C296.515 93.8193 296.714 93.88 296.922 93.932C297.13 93.984 297.347 94.01 297.572 94.01C297.815 94.01 298.04 93.9147 298.248 93.724C298.474 93.5333 298.682 93.1953 298.872 92.71C299.08 92.2247 299.271 91.5573 299.444 90.708C299.618 89.8587 299.774 88.7927 299.912 87.51C300.068 86.21 300.207 84.6413 300.328 82.804H311.066V97ZM318.854 88.42C318.854 88.7147 318.837 89.0787 318.802 89.512C318.785 89.9453 318.759 90.3873 318.724 90.838C318.707 91.2887 318.681 91.6873 318.646 92.034C318.611 92.3807 318.585 92.6233 318.568 92.762L325.12 82.804H329.774V97H326.03V91.332C326.03 90.864 326.047 90.3527 326.082 89.798C326.117 89.226 326.151 88.6973 326.186 88.212C326.238 87.7093 326.273 87.328 326.29 87.068L319.764 97H315.11V82.804H318.854V88.42ZM351.711 82.804V97H348.097V90.032C348.097 89.3387 348.106 88.6627 348.123 88.004C348.158 87.3453 348.201 86.7387 348.253 86.184H348.175L344.249 97H341.337L337.359 86.158H337.255C337.324 86.73 337.368 87.3453 337.385 88.004C337.42 88.6453 337.437 89.356 337.437 90.136V97H333.823V82.804H339.309L342.845 92.424L346.433 82.804H351.711ZM365.562 82.804V85.716H359.634V97H355.76V82.804H365.562ZM374 82.518C375.907 82.518 377.363 82.934 378.368 83.766C379.391 84.5807 379.902 85.8373 379.902 87.536V97H377.198L376.444 95.076H376.34C375.942 95.5787 375.526 95.9947 375.092 96.324C374.676 96.6533 374.191 96.8873 373.636 97.026C373.099 97.182 372.432 97.26 371.634 97.26C370.802 97.26 370.048 97.104 369.372 96.792C368.714 96.4627 368.194 95.9687 367.812 95.31C367.431 94.634 367.24 93.7847 367.24 92.762C367.24 91.254 367.769 90.1447 368.826 89.434C369.884 88.706 371.47 88.3073 373.584 88.238L376.054 88.16V87.536C376.054 86.7907 375.855 86.2447 375.456 85.898C375.075 85.5513 374.538 85.378 373.844 85.378C373.151 85.378 372.475 85.482 371.816 85.69C371.158 85.8807 370.499 86.1233 369.84 86.418L368.566 83.792C369.329 83.3933 370.17 83.0813 371.088 82.856C372.024 82.6307 372.995 82.518 374 82.518ZM374.546 90.474C373.298 90.5087 372.432 90.734 371.946 91.15C371.461 91.566 371.218 92.112 371.218 92.788C371.218 93.3773 371.392 93.802 371.738 94.062C372.085 94.3047 372.536 94.426 373.09 94.426C373.922 94.426 374.624 94.1833 375.196 93.698C375.768 93.1953 376.054 92.4933 376.054 91.592V90.422L374.546 90.474ZM65.924 121.876C65.924 123.055 65.7593 124.103 65.43 125.022C65.118 125.941 64.6587 126.721 64.052 127.362C63.4627 127.986 62.7433 128.463 61.894 128.792C61.0447 129.104 60.0827 129.26 59.008 129.26C58.02 129.26 57.1013 129.104 56.252 128.792C55.42 128.463 54.7007 127.986 54.094 127.362C53.4873 126.721 53.0107 125.941 52.664 125.022C52.3347 124.103 52.17 123.055 52.17 121.876C52.17 120.299 52.4473 118.973 53.002 117.898C53.5567 116.806 54.354 115.974 55.394 115.402C56.434 114.83 57.6647 114.544 59.086 114.544C60.4207 114.544 61.5993 114.83 62.622 115.402C63.6447 115.974 64.4507 116.806 65.04 117.898C65.6293 118.973 65.924 120.299 65.924 121.876ZM56.122 121.876C56.122 122.812 56.2173 123.601 56.408 124.242C56.616 124.866 56.9367 125.343 57.37 125.672C57.8033 125.984 58.3667 126.14 59.06 126.14C59.7533 126.14 60.308 125.984 60.724 125.672C61.1573 125.343 61.4693 124.866 61.66 124.242C61.868 123.601 61.972 122.812 61.972 121.876C61.972 120.94 61.868 120.16 61.66 119.536C61.4693 118.912 61.1573 118.444 60.724 118.132C60.2907 117.82 59.7273 117.664 59.034 117.664C58.0113 117.664 57.266 118.019 56.798 118.73C56.3473 119.423 56.122 120.472 56.122 121.876ZM68.2677 120.498C68.2677 118.401 68.5277 116.624 69.0477 115.168C69.5677 113.695 70.391 112.525 71.5177 111.658C72.6443 110.774 74.1177 110.176 75.9377 109.864C76.8563 109.708 77.7837 109.578 78.7197 109.474C79.673 109.353 80.6523 109.231 81.6577 109.11L82.0997 112.49C81.6663 112.542 81.1897 112.603 80.6697 112.672C80.1497 112.724 79.621 112.785 79.0837 112.854C78.5637 112.906 78.061 112.967 77.5757 113.036C77.0903 113.105 76.6483 113.166 76.2497 113.218C75.6083 113.322 75.045 113.469 74.5597 113.66C74.0743 113.833 73.667 114.085 73.3377 114.414C73.0083 114.743 72.7483 115.194 72.5577 115.766C72.3843 116.321 72.2717 117.04 72.2197 117.924H72.4017C72.6097 117.595 72.8957 117.265 73.2597 116.936C73.641 116.607 74.109 116.329 74.6637 116.104C75.2183 115.879 75.851 115.766 76.5617 115.766C77.6883 115.766 78.6677 116 79.4997 116.468C80.3317 116.936 80.973 117.629 81.4237 118.548C81.8743 119.467 82.0997 120.611 82.0997 121.98C82.0997 123.592 81.805 124.935 81.2157 126.01C80.6263 127.085 79.8117 127.899 78.7717 128.454C77.7317 128.991 76.527 129.26 75.1577 129.26C74.1177 129.26 73.173 129.069 72.3237 128.688C71.4743 128.307 70.7463 127.743 70.1397 126.998C69.533 126.253 69.065 125.334 68.7357 124.242C68.4237 123.15 68.2677 121.902 68.2677 120.498ZM75.3917 126.114C75.9463 126.114 76.423 125.993 76.8217 125.75C77.2377 125.507 77.5583 125.109 77.7837 124.554C78.0263 123.999 78.1477 123.254 78.1477 122.318C78.1477 121.191 77.957 120.299 77.5757 119.64C77.2117 118.964 76.5703 118.626 75.6517 118.626C75.097 118.626 74.577 118.765 74.0917 119.042C73.6237 119.302 73.225 119.605 72.8957 119.952C72.5663 120.281 72.341 120.567 72.2197 120.81C72.2197 121.486 72.2717 122.145 72.3757 122.786C72.4797 123.41 72.653 123.973 72.8957 124.476C73.1383 124.979 73.459 125.377 73.8577 125.672C74.2737 125.967 74.785 126.114 75.3917 126.114ZM83.2715 114.804H87.5095L90.1875 122.786C90.2742 123.046 90.3435 123.306 90.3955 123.566C90.4648 123.826 90.5168 124.095 90.5515 124.372C90.6035 124.649 90.6382 124.944 90.6555 125.256H90.7335C90.7855 124.805 90.8548 124.381 90.9415 123.982C91.0455 123.566 91.1582 123.167 91.2795 122.786L93.9055 114.804H98.0655L92.0595 130.82C91.6955 131.791 91.2188 132.605 90.6295 133.264C90.0575 133.923 89.3902 134.417 88.6275 134.746C87.8648 135.075 87.0328 135.24 86.1315 135.24C85.6982 135.24 85.3168 135.214 84.9875 135.162C84.6755 135.127 84.3982 135.084 84.1555 135.032V131.964C84.3462 131.999 84.5715 132.033 84.8315 132.068C85.1088 132.103 85.3948 132.12 85.6895 132.12C86.2268 132.12 86.6862 132.007 87.0675 131.782C87.4662 131.557 87.7955 131.245 88.0555 130.846C88.3155 130.465 88.5235 130.049 88.6795 129.598L88.9135 128.896L83.2715 114.804ZM103.976 114.804V120.264H109.384V114.804H113.258V129H109.384V123.15H103.976V129H100.102V114.804H103.976ZM123.141 114.518C125.048 114.518 126.504 114.934 127.509 115.766C128.532 116.581 129.043 117.837 129.043 119.536V129H126.339L125.585 127.076H125.481C125.082 127.579 124.666 127.995 124.233 128.324C123.817 128.653 123.332 128.887 122.777 129.026C122.24 129.182 121.572 129.26 120.775 129.26C119.943 129.26 119.189 129.104 118.513 128.792C117.854 128.463 117.334 127.969 116.953 127.31C116.572 126.634 116.381 125.785 116.381 124.762C116.381 123.254 116.91 122.145 117.967 121.434C119.024 120.706 120.61 120.307 122.725 120.238L125.195 120.16V119.536C125.195 118.791 124.996 118.245 124.597 117.898C124.216 117.551 123.678 117.378 122.985 117.378C122.292 117.378 121.616 117.482 120.957 117.69C120.298 117.881 119.64 118.123 118.981 118.418L117.707 115.792C118.47 115.393 119.31 115.081 120.229 114.856C121.165 114.631 122.136 114.518 123.141 114.518ZM123.687 122.474C122.439 122.509 121.572 122.734 121.087 123.15C120.602 123.566 120.359 124.112 120.359 124.788C120.359 125.377 120.532 125.802 120.879 126.062C121.226 126.305 121.676 126.426 122.231 126.426C123.063 126.426 123.765 126.183 124.337 125.698C124.909 125.195 125.195 124.493 125.195 123.592V122.422L123.687 122.474ZM137.813 120.498C137.813 118.401 138.073 116.624 138.593 115.168C139.113 113.695 139.936 112.525 141.063 111.658C142.189 110.774 143.663 110.176 145.483 109.864C146.401 109.708 147.329 109.578 148.265 109.474C149.218 109.353 150.197 109.231 151.203 109.11L151.645 112.49C151.211 112.542 150.735 112.603 150.215 112.672C149.695 112.724 149.166 112.785 148.629 112.854C148.109 112.906 147.606 112.967 147.121 113.036C146.635 113.105 146.193 113.166 145.795 113.218C145.153 113.322 144.59 113.469 144.105 113.66C143.619 113.833 143.212 114.085 142.883 114.414C142.553 114.743 142.293 115.194 142.103 115.766C141.929 116.321 141.817 117.04 141.765 117.924H141.947C142.155 117.595 142.441 117.265 142.805 116.936C143.186 116.607 143.654 116.329 144.209 116.104C144.763 115.879 145.396 115.766 146.107 115.766C147.233 115.766 148.213 116 149.045 116.468C149.877 116.936 150.518 117.629 150.969 118.548C151.419 119.467 151.645 120.611 151.645 121.98C151.645 123.592 151.35 124.935 150.761 126.01C150.171 127.085 149.357 127.899 148.317 128.454C147.277 128.991 146.072 129.26 144.703 129.26C143.663 129.26 142.718 129.069 141.869 128.688C141.019 128.307 140.291 127.743 139.685 126.998C139.078 126.253 138.61 125.334 138.281 124.242C137.969 123.15 137.813 121.902 137.813 120.498ZM144.937 126.114C145.491 126.114 145.968 125.993 146.367 125.75C146.783 125.507 147.103 125.109 147.329 124.554C147.571 123.999 147.693 123.254 147.693 122.318C147.693 121.191 147.502 120.299 147.121 119.64C146.757 118.964 146.115 118.626 145.197 118.626C144.642 118.626 144.122 118.765 143.637 119.042C143.169 119.302 142.77 119.605 142.441 119.952C142.111 120.281 141.886 120.567 141.765 120.81C141.765 121.486 141.817 122.145 141.921 122.786C142.025 123.41 142.198 123.973 142.441 124.476C142.683 124.979 143.004 125.377 143.403 125.672C143.819 125.967 144.33 126.114 144.937 126.114ZM166.492 108.694C166.406 109.595 166.154 110.393 165.738 111.086C165.322 111.762 164.672 112.291 163.788 112.672C162.904 113.053 161.717 113.244 160.226 113.244C158.701 113.244 157.505 113.062 156.638 112.698C155.789 112.317 155.182 111.788 154.818 111.112C154.454 110.436 154.238 109.63 154.168 108.694H157.626C157.713 109.647 157.956 110.28 158.354 110.592C158.753 110.904 159.403 111.06 160.304 111.06C161.05 111.06 161.656 110.895 162.124 110.566C162.61 110.219 162.896 109.595 162.982 108.694H166.492ZM152.816 114.804H157.054L159.732 122.786C159.819 123.046 159.888 123.306 159.94 123.566C160.01 123.826 160.062 124.095 160.096 124.372C160.148 124.649 160.183 124.944 160.2 125.256H160.278C160.33 124.805 160.4 124.381 160.486 123.982C160.59 123.566 160.703 123.167 160.824 122.786L163.45 114.804H167.61L161.604 130.82C161.24 131.791 160.764 132.605 160.174 133.264C159.602 133.923 158.935 134.417 158.172 134.746C157.41 135.075 156.578 135.24 155.676 135.24C155.243 135.24 154.862 135.214 154.532 135.162C154.22 135.127 153.943 135.084 153.7 135.032V131.964C153.891 131.999 154.116 132.033 154.376 132.068C154.654 132.103 154.94 132.12 155.234 132.12C155.772 132.12 156.231 132.007 156.612 131.782C157.011 131.557 157.34 131.245 157.6 130.846C157.86 130.465 158.068 130.049 158.224 129.598L158.458 128.896L152.816 114.804ZM181.853 129H177.979V117.716H174.417C174.244 119.796 174.027 121.573 173.767 123.046C173.525 124.502 173.213 125.689 172.831 126.608C172.467 127.527 171.999 128.203 171.427 128.636C170.855 129.052 170.153 129.26 169.321 129.26C168.871 129.26 168.463 129.225 168.099 129.156C167.735 129.087 167.406 128.983 167.111 128.844V125.75C167.302 125.819 167.501 125.88 167.709 125.932C167.917 125.984 168.134 126.01 168.359 126.01C168.602 126.01 168.827 125.915 169.035 125.724C169.261 125.533 169.469 125.195 169.659 124.71C169.867 124.225 170.058 123.557 170.231 122.708C170.405 121.859 170.561 120.793 170.699 119.51C170.855 118.21 170.994 116.641 171.115 114.804H181.853V129ZM189.641 120.42C189.641 120.715 189.624 121.079 189.589 121.512C189.572 121.945 189.546 122.387 189.511 122.838C189.494 123.289 189.468 123.687 189.433 124.034C189.398 124.381 189.372 124.623 189.355 124.762L195.907 114.804H200.561V129H196.817V123.332C196.817 122.864 196.834 122.353 196.869 121.798C196.904 121.226 196.938 120.697 196.973 120.212C197.025 119.709 197.06 119.328 197.077 119.068L190.551 129H185.897V114.804H189.641V120.42ZM208.484 114.804V120.264H213.892V114.804H217.766V129H213.892V123.15H208.484V129H204.61V114.804H208.484ZM231.627 114.804V117.716H225.699V129H221.825V114.804H231.627Z" fill="white"/>
</svg>
